<?xml version="1.0" encoding="UTF-8"?>
<svg id="Layer_1" data-name="Layer 1" xmlns="http://www.w3.org/2000/svg" viewBox="0 0 103.99 118.98">
  <path d="m82.85,104.14c-4.58,0-9.16.04-13.73-.02-1.64-.02-2.36.39-2.63,2.27-1.1,7.57-7.13,12.62-14.64,12.59-7.42-.03-13.26-5.14-14.36-12.86-.3-2.12-1.57-1.97-2.94-1.98-8.76-.02-17.51.05-26.27-.06-1.73-.02-3.65-.32-5.13-1.14-3.91-2.18-4.22-6.51-.66-9.93,7.36-7.07,11.65-15.73,13.98-25.53,1.79-7.52,1.65-15.09.07-22.52-3.19-15.04,4.96-27.46,17.87-33.43,2.6-1.2,5.36-2.15,8.14-2.85,1.64-.41,2.24-1.11,2.6-2.68C46.13,1.64,48,.05,51.72,0c3.92-.05,5.9,1.8,7.2,6.16.28.96,1.43,2.06,2.4,2.36,9.36,2.83,17.35,7.48,22.26,16.32,3.33,6,3.95,12.37,2.57,19.09-3.31,16.08-.45,30.85,9.94,43.84,1.54,1.93,3.41,3.61,5.2,5.33,1.87,1.79,3.5,3.54,2.3,6.47-1.2,2.92-3.36,4.45-6.4,4.53-4.77.12-9.55.03-14.33.03v.02Zm-74.04-7.23h86.11c-1.29-1.58-2.28-2.68-3.13-3.88-2.45-3.49-5.24-6.82-7.19-10.57-6.4-12.34-8.09-25.43-5.43-39.09,2.53-13-4.74-24.91-17.49-27.99-4.37-1.05-9.07-1.17-13.59-1.02-15.05.5-28.29,13.69-24.82,30.37,3.71,17.84-.29,34.8-12.2,49.29-.67.81-1.29,1.66-2.25,2.89Z"/>
</svg>