<?xml version="1.0" encoding="UTF-8"?>
<svg id="Layer_1" data-name="Layer 1" xmlns="http://www.w3.org/2000/svg" viewBox="0 0 94.09 90.21">
  <path d="m38.74,90.21c-1.41-1.02-2.58-1.61-3.41-2.52C24.09,75.27,12.89,62.81,1.71,50.33c-2.36-2.64-2.27-4.12.21-6.66,1.47-1.5,2.95-2.98,4.45-4.44,2.57-2.51,3.72-2.55,6.26-.02,6.93,6.9,13.8,13.85,20.71,20.77,3.22,3.23,5.21,3.05,7.85-.72,13.16-18.8,26.31-37.61,39.48-56.41,2.49-3.55,4.39-3.79,7.43-.73,7.84,7.89,7.53,6.07,1.67,14.76-15.86,23.48-31.76,46.94-47.7,70.37-.76,1.12-2.08,1.86-3.34,2.96Z"/>
</svg>