<svg xmlns="http://www.w3.org/2000/svg" width="430" height="263.322" viewBox="0 0 430 263.322">
  <g id="Group_2" data-name="Group 2" transform="translate(-271 -239)">
    <g id="Group_1" data-name="Group 1">
      <g id="Rectangle_1" data-name="Rectangle 1" transform="translate(271 239)" fill="#fff" stroke="#f5f6f8" stroke-width="1">
        <rect width="430" height="263.322" rx="20" stroke="none"/>
        <rect x="0.5" y="0.5" width="429" height="262.322" rx="19.5" fill="none"/>
      </g>
      <circle id="Ellipse_1" data-name="Ellipse 1" cx="18" cy="18" r="18" transform="translate(649 256)" fill="#fdf0b2"/>
      <path id="Path_4" data-name="Path 4" d="M54.189,40.171a23.19,23.19,0,0,1,2.593.449,6.6,6.6,0,0,1,4.745,6.371c0,1.1,0,2.189,0,3.325H44.886c0-.4-.009-.815,0-1.228a21.325,21.325,0,0,1,.139-3.417,6.606,6.606,0,0,1,6.483-5.376c.191,0,.379-.029.651-.052-3.316-1.432-4.442-3.311-3.789-6.2a4.893,4.893,0,0,1,5.143-3.717,4.7,4.7,0,0,1,4.633,4.294,5.007,5.007,0,0,1-3.955,5.554Zm-7.646,8.6h11.5a1.683,1.683,0,0,0,1.9-1.926,5.093,5.093,0,0,0-4.916-4.97q-1.842-.024-3.686,0a4.788,4.788,0,0,0-2.909,1.055C46.514,44.42,46.273,46.465,46.543,48.775ZM56.568,35.309a3.3,3.3,0,0,0-3.36-3.405,3.413,3.413,0,0,0-3.4,3.345,3.327,3.327,0,0,0,3.378,3.4,3.367,3.367,0,0,0,3.381-3.345Z" transform="translate(614.118 233.685)"/>
      <circle id="Ellipse_2" data-name="Ellipse 2" cx="7.5" cy="7.5" r="7.5" transform="translate(289 256)" fill="#fd5773"/>
      <circle id="Ellipse_3" data-name="Ellipse 3" cx="7.5" cy="7.5" r="7.5" transform="translate(309 256)" fill="#f9b201"/>
      <circle id="Ellipse_4" data-name="Ellipse 4" cx="7.5" cy="7.5" r="7.5" transform="translate(329 256)" fill="#55c719"/>
      <rect id="Rectangle_2" data-name="Rectangle 2" width="170" height="17" rx="8.5" transform="translate(289 303)" fill="#d4dadc"/>
      <rect id="Rectangle_3" data-name="Rectangle 3" width="278" height="16" rx="2" transform="translate(407 335)" fill="#f5f6f8"/>
      <rect id="Rectangle_4" data-name="Rectangle 4" width="278" height="16" rx="2" transform="translate(407 356)" fill="#f5f6f8"/>
      <rect id="Rectangle_5" data-name="Rectangle 5" width="102" height="90" rx="2" transform="translate(289 335)" fill="#f5f6f8"/>
      <text id="_00:30" data-name="00:30" transform="translate(407 409)" font-size="20" font-family="SegoeUI-Bold, Segoe UI" font-weight="700"><tspan x="0" y="0">00:30</tspan></text>
      <g id="qr" transform="translate(470.057 382)">
        <path id="Path_5" data-name="Path 5" d="M72.86,14.667c.98,0,1.961,0,2.941,0a2.582,2.582,0,0,1,2.836,2.556c.092,2.177.092,4.367,0,6.545a2.564,2.564,0,0,1-2.839,2.55c-1.993.01-3.985.016-5.978,0a2.66,2.66,0,0,1-2.871-2.836q-.057-2.989,0-5.978a2.689,2.689,0,0,1,2.97-2.836c.98,0,1.961,0,2.941,0Zm3.571,5.847c0-.98.041-1.964-.032-2.938a.94.94,0,0,0-.64-.646c-1.926-.051-3.855-.019-5.781-.038-.563-.006-.8.22-.8.783q.019,2.846,0,5.688c0,.535.261.732.758.732,1.929,0,3.855-.01,5.784,0,.532,0,.729-.22.716-.742-.025-.949-.006-1.9-.01-2.843Z" transform="translate(-45.616 -9.998)"/>
        <path id="Path_6" data-name="Path 6" d="M21.131,67.105c1.108,0,2.219-.019,3.326.006a2.37,2.37,0,0,1,2.492,2.34c.08,2.244.092,4.5.016,6.742a2.456,2.456,0,0,1-2.744,2.5q-3.089.01-6.178,0a2.5,2.5,0,0,1-2.76-2.6q-.081-3.228,0-6.462a2.433,2.433,0,0,1,2.706-2.524c1.044-.01,2.091,0,3.135,0Zm-3.61,2.238c0,2.311-.016,4.46.029,6.605,0,.175.392.484.6.487,1.964.038,3.928.041,5.889-.006a.868.868,0,0,0,.6-.6q.067-2.946,0-5.889a.8.8,0,0,0-.522-.576c-2.149-.041-4.3-.025-6.6-.025Z" transform="translate(-10.389 -45.74)"/>
        <path id="Path_7" data-name="Path 7" d="M26.7,21.317c0,1.044.013,2.088,0,3.132a2.535,2.535,0,0,1-2.486,2.588q-3.323.067-6.643,0a2.549,2.549,0,0,1-2.578-2.426q-.124-3.366,0-6.736a2.509,2.509,0,0,1,2.553-2.448c2.212-.051,4.431-.051,6.643,0A2.535,2.535,0,0,1,26.7,18.083c.013,1.076,0,2.152,0,3.228Zm-2.25-.035c0-.949-.022-1.9.01-2.849.019-.56-.169-.815-.751-.812-1.9.016-3.8.013-5.7,0-.522,0-.732.232-.729.748q.019,2.846,0,5.7c0,.583.258.761.815.754,1.868-.022,3.734-.025,5.6,0,.592.006.774-.236.758-.793-.029-.917-.006-1.837-.006-2.753Z" transform="translate(-10.175 -10.491)"/>
        <path id="Path_8" data-name="Path 8" d="M38.61,14.82H40.46c.022.35.054.656.054.964q0,5.787,0,11.577c0,2.165-.618,2.782-2.744,2.782H30.21V28.192h3c1.455,0,2.913-.032,4.364.013.78.025,1.047-.242,1.041-1.031-.032-3.766-.013-7.528-.013-11.294V14.82Z" transform="translate(-20.591 -10.103)"/>
        <path id="Path_9" data-name="Path 9" d="M.028,89.39H2.275v7.133H9.332v2.285c-2.464,0-4.892.048-7.321-.019A2.033,2.033,0,0,1,.047,96.619c-.064-2.368-.019-4.736-.019-7.226Z" transform="translate(-0.006 -60.936)"/>
        <path id="Path_10" data-name="Path 10" d="M2.295,9.706H.012V7.42c0-1.614-.022-3.228.006-4.842A2.294,2.294,0,0,1,2.626.026c2.241-.013,4.485,0,6.793,0V2.162c-.312.019-.643.06-.974.06-1.678.006-3.355.038-5.029-.013-.831-.025-1.181.178-1.143,1.1.076,1.77.022,3.543.022,5.313V9.7Z" transform="translate(0 -0.013)"/>
        <path id="Path_11" data-name="Path 11" d="M96.835,89.4h2.184c0,2.61.038,5.166-.022,7.719a1.874,1.874,0,0,1-1.8,1.678c-2.461.054-4.927.019-7.461.019v-2.2h7.1V89.4Z" transform="translate(-61.165 -60.943)"/>
        <path id="Path_12" data-name="Path 12" d="M89.686,2.215V.009h4.877c.793,0,1.585-.029,2.375.013a2.034,2.034,0,0,1,2.053,1.97C99.032,4.526,99,7.06,99,9.664H96.9c-.022-.318-.064-.649-.064-.984-.006-1.868-.029-3.74.01-5.609.013-.675-.229-.879-.879-.869-2.056.029-4.113.01-6.284.01Z" transform="translate(-61.131 0)"/>
        <path id="Path_13" data-name="Path 13" d="M82.56,89.447V87.474h4.708V82.89h1.8c0,1.693.083,3.419-.035,5.131a1.565,1.565,0,0,1-1.582,1.4c-1.607.064-3.215.019-4.892.019Z" transform="translate(-56.277 -56.505)"/>
        <path id="Path_14" data-name="Path 14" d="M67.52,57.3V55.262c1.865,0,3.7-.089,5.513.032,1.232.08,2.292,2.356,1.576,3.32-.207.277-.917.229-1.394.223-.137,0-.322-.369-.392-.6a4.632,4.632,0,0,1-.07-.936H67.52Z" transform="translate(-46.025 -37.65)"/>
        <path id="Path_15" data-name="Path 15" d="M72.935,81.7c-.022-.169-.041-.261-.045-.353C72.8,78.657,73.333,78.1,76,78.1h.474q1.84,0,1.522,1.967H74.972c-.064.614-.115,1.13-.169,1.633H72.932Z" transform="translate(-49.68 -53.24)"/>
        <path id="Path_16" data-name="Path 16" d="M59.926,85.59v1.789a1.7,1.7,0,0,0-1.289,1.808v.761q0,1.77-1.884,1.49c0-1.429-.076-2.874.029-4.31.067-.939.923-1.5,2-1.531.344-.013.691,0,1.152,0Z" transform="translate(-38.666 -58.346)"/>
        <path id="Path_17" data-name="Path 17" d="M64.46,67.32v2.33H59.94V67.32Z" transform="translate(-40.858 -45.891)"/>
        <path id="Path_18" data-name="Path 18" d="M17.064,55.968a1.163,1.163,0,0,1,1.327,1.308q0,1.19-1.448,1.187A1.125,1.125,0,0,1,15.66,57.2Q15.66,55.936,17.064,55.968Z" transform="translate(-10.672 -38.153)"/>
        <path id="Path_19" data-name="Path 19" d="M99.528,69.694H97.5V67.37h2.028Z" transform="translate(-66.462 -45.925)"/>
        <path id="Path_20" data-name="Path 20" d="M81.281,25.272c0,.949-.016,1.9.006,2.843.013.522-.185.745-.716.742-1.929-.013-3.855-.006-5.784,0-.5,0-.761-.2-.758-.732.01-1.9.013-3.791,0-5.688,0-.563.236-.789.8-.783,1.929.016,3.855-.016,5.781.038a.94.94,0,0,1,.64.646C81.322,23.308,81.281,24.292,81.281,25.272Zm-2.461,1.273V24.413H76.748v2.133Z" transform="translate(-50.462 -14.758)" fill="#fff"/>
        <path id="Path_21" data-name="Path 21" d="M22.4,74.154c2.3,0,4.45-.016,6.6.025a.8.8,0,0,1,.522.576q.062,2.946,0,5.889a.862.862,0,0,1-.6.6c-1.964.048-3.928.045-5.889.006-.213,0-.6-.312-.6-.487-.041-2.149-.029-4.3-.029-6.6Zm2.457,4.854H26.99v-2.1H24.857Z" transform="translate(-15.267 -50.548)" fill="#fff"/>
        <path id="Path_22" data-name="Path 22" d="M29.5,26.067c0,.917-.019,1.837.006,2.753.016.557-.166.8-.758.793-1.865-.025-3.734-.022-5.6,0-.557.006-.818-.172-.815-.754q.019-2.846,0-5.7c0-.516.2-.751.729-.748,1.9.01,3.8.013,5.7,0,.583,0,.767.251.751.812-.032.949-.01,1.9-.01,2.849Zm-2.537-1.127H24.825v2.123h2.136Z" transform="translate(-15.219 -15.277)" fill="#fff"/>
        <path id="Path_23" data-name="Path 23" d="M84.642,32.463H82.57V30.33h2.072Z" transform="translate(-56.284 -20.676)"/>
        <path id="Path_24" data-name="Path 24" d="M30.12,84.918v-2.1h2.133v2.1Z" transform="translate(-20.53 -56.458)"/>
        <path id="Path_25" data-name="Path 25" d="M32.306,30.36v2.123H30.17V30.36Z" transform="translate(-20.564 -20.696)"/>
      </g>
    </g>
  </g>
</svg>
