<svg xmlns="http://www.w3.org/2000/svg" width="16.488" height="15.838" viewBox="0 0 16.488 15.838">
  <path id="fav" d="M16.1,7.2a1.151,1.151,0,0,0,0-1.7,1.612,1.612,0,0,0-.7-.4h0l-4.1-.6c-.1,0-.1-.1-.2-.1L9.3.7a1.2,1.2,0,0,0-1-.7A1.23,1.23,0,0,0,7.2.7L5.3,4.4c0,.1-.1.1-.2.1L1,5.1A1.246,1.246,0,0,0,0,6.5a1.012,1.012,0,0,0,.4.7l3,2.9c.1.1.1.1.1.2l-.7,4.1a1.174,1.174,0,0,0,1,1.4,2.2,2.2,0,0,0,.8-.1l3.7-1.9h.2l3.7,1.9a1.165,1.165,0,0,0,1.6-.5,1.063,1.063,0,0,0,.1-.8l-.7-4.1c0-.1,0-.2.1-.2Z" transform="translate(0.013)" fill="#4788c7"/>
</svg>
