<svg width="13" height="13" viewBox="0 0 13 13" fill="none" xmlns="http://www.w3.org/2000/svg">
<path d="M0.450645 0.000976568C0.371243 0.00112177 0.293285 0.0224539 0.224656 0.0628161C0.156026 0.103179 0.0991555 0.16114 0.059795 0.230841C0.020435 0.300542 -2.01476e-05 0.379511 0.000497881 0.459765C0.00101591 0.540018 0.0224887 0.61871 0.0627457 0.687885L4.95564 7.28605V12.2944C4.95556 12.3721 4.97514 12.4485 5.01252 12.5163C5.0499 12.5842 5.10383 12.6412 5.16919 12.682C5.23454 12.7228 5.30915 12.746 5.3859 12.7495C5.46264 12.7529 5.53899 12.7365 5.60766 12.7016L7.41234 11.7908C7.48705 11.7529 7.54989 11.6948 7.5937 11.6229C7.63756 11.5509 7.66079 11.4681 7.66067 11.3836V7.28524L12.5512 0.687091C12.5913 0.617875 12.6126 0.539194 12.613 0.45899C12.6134 0.378786 12.5928 0.2999 12.5534 0.230298C12.514 0.160695 12.457 0.102841 12.3885 0.0625767C12.3198 0.0223123 12.2419 0.0010638 12.1625 0.000976562L0.450645 0.000976568ZM1.23906 0.911811H11.3733L6.81945 6.92986C6.77845 6.99981 6.75695 7.07967 6.75718 7.16092V11.1023L5.85604 11.5558V7.16092C5.85586 7.07967 5.83442 6.99992 5.79371 6.92986L1.23906 0.911811Z" fill="#5C6D84"/>
</svg>
