<svg width="24" height="24" viewBox="0 0 24 24" fill="none" xmlns="http://www.w3.org/2000/svg">
<path d="M0.326415 22.3623C0.185666 22.0866 0.0863026 21.7863 0.0365176 21.4695L0.135305 21.4539C0.112072 21.3061 0.1 21.1545 0.1 21V20.5H0V19.5H0.1V18.5H0V17.5H0.1V16.5H0V15.5H0.1V14.5H0V13.5H0.1V12.5H0V11.5H0.1V10.5H0V9.5H0.1V8.5H0V7.5H0.1V6.5H0V5.5H0.1V4.5H0V3.5H0.1V3H0C0 2.84029 0.0124799 2.6835 0.0365177 2.53054L0.135305 2.54607C0.183422 2.23989 0.279446 1.94965 0.415479 1.6832L0.326415 1.63773C0.470215 1.35607 0.657215 1.10014 0.87868 0.87868L0.94939 0.94939C1.16353 0.735252 1.41096 0.554472 1.6832 0.415479L1.63773 0.326415C1.91342 0.185666 2.21375 0.0863028 2.53054 0.0365177L2.54607 0.135305C2.69391 0.112072 2.84551 0.1 3 0.1H3.5V0H4.5V0.1H5.5V0H6.5V0.1H7.5V0H8.5V0.1H9.5V0H10.5V0.1H11.5V0H12.5V0.1H13.5V0H14.5V0.1H15.5V0H16.5V0.1H17.5V0H18.5V0.1H19.5V0H20.5V0.1H21V0C21.1597 0 21.3165 0.0124799 21.4695 0.0365176L21.4539 0.135305C21.7601 0.183422 22.0504 0.279446 22.3168 0.415479L22.3623 0.326415C22.6439 0.470215 22.8999 0.657215 23.1213 0.87868L23.0506 0.94939C23.2647 1.16353 23.4455 1.41096 23.5845 1.6832L23.6736 1.63773C23.8143 1.91342 23.9137 2.21375 23.9635 2.53054L23.8647 2.54607C23.8879 2.69391 23.9 2.84551 23.9 3V3.5H24V4.5H23.9V5.5H24V6.5H23.9V7.5H24V8.5H23.9V9.5H24V10.5H23.9V11.5H24V12.5H23.9V13.5H24V14.5H23.9V15.5H24V16.5H23.9V17.5H24V18.5H23.9V19.5H24V20.5H23.9V21H24C24 21.1597 23.9875 21.3165 23.9635 21.4695L23.8647 21.4539C23.8166 21.7601 23.7206 22.0504 23.5845 22.3168L23.6736 22.3623C23.5298 22.6439 23.3428 22.8999 23.1213 23.1213L23.0506 23.0506C22.8365 23.2647 22.589 23.4455 22.3168 23.5845L22.3623 23.6736C22.0866 23.8143 21.7863 23.9137 21.4695 23.9635L21.4539 23.8647C21.3061 23.8879 21.1545 23.9 21 23.9H20.5V24H19.5V23.9H18.5V24H17.5V23.9H16.5V24H15.5V23.9H14.5V24H13.5V23.9H12.5V24H11.5V23.9H10.5V24H9.5V23.9H8.5V24H7.5V23.9H6.5V24H5.5V23.9H4.5V24H3.5V23.9H3V24C2.84029 24 2.6835 23.9875 2.53054 23.9635L2.54607 23.8647C2.23989 23.8166 1.94965 23.7206 1.6832 23.5845L1.63773 23.6736C1.35607 23.5298 1.10014 23.3428 0.87868 23.1213L0.949391 23.0506C0.735252 22.8365 0.554472 22.589 0.415479 22.3168L0.326415 22.3623Z" fill="white" stroke="black" stroke-width="0.2" stroke-dasharray="1"/>
<line x1="5.5" y1="5" x2="18.5" y2="5" stroke="black" stroke-width="2" stroke-linecap="round"/>
<line x1="5.5" y1="11" x2="18.5" y2="11" stroke="black" stroke-width="2" stroke-linecap="round"/>
<line x1="5.5" y1="17" x2="18.5" y2="17" stroke="black" stroke-width="2" stroke-linecap="round"/>
</svg>
