<?xml version="1.0" encoding="UTF-8"?>
<svg id="Layer_1" data-name="Layer 1" xmlns="http://www.w3.org/2000/svg" viewBox="0 0 120.2 104.69">
  <path d="m67.51,104.64v-30.41c-4.99,0-9.45-.09-13.91.12-.56.03-1.5,1.64-1.51,2.53-.1,8.09-.03,16.19-.02,24.29,0,1.08,0,2.15,0,3.52-7.27,0-14.24,0-21.21,0-2.6,0-5.2.02-7.8,0-5.11-.05-7.95-2.74-8.07-7.98-.14-6.49-.04-12.99-.05-19.49,0-5.9-.11-11.8.09-17.69.05-1.36.8-3.15,1.84-3.97,13.61-10.65,27.35-21.13,41-31.73,1.49-1.16,2.52-1.06,3.91.03,13.81,10.72,27.67,21.37,41.46,32.12.72.56,1.3,1.8,1.31,2.73.08,12.89.1,25.79.03,38.68-.02,3.88-2.8,7.12-6.65,7.2-9.97.2-19.94.07-30.44.07Zm-45.33-26.29c0,5.4.08,10.8-.04,16.19-.05,2.23.41,3.23,2.95,3.15,5.69-.19,11.4-.17,17.09-.01,2.31.06,2.88-.75,2.84-2.93-.12-6.6-.11-13.19-.02-19.79.06-4.88,3.04-7.75,7.91-7.8,4.1-.04,8.2,0,12.3,0,7.01,0,9.34,2.27,9.41,9.3.06,6.2.06,12.4-.01,18.59-.02,1.92.59,2.65,2.59,2.62,5.8-.1,11.6-.15,17.39.02,2.38.07,3.1-.67,3.08-3.04-.11-10.59-.11-21.19,0-31.79.03-2.29-.84-3.65-2.6-4.95-10.91-8.1-21.78-16.25-32.6-24.48-1.87-1.42-3.19-1.6-5.2-.06-10.95,8.38-22,16.62-33.08,24.82-1.57,1.16-2.09,2.4-2.05,4.27.11,5.3.04,10.6.04,15.89Z"/>
  <path d="m120.2,51.43c-1.12,1.38-1.79,2.97-2.69,3.11-1.37.22-3.23-.15-4.31-.99-4.79-3.76-9.38-7.79-14.05-11.7-12.33-10.34-24.71-20.62-36.97-31.04-1.88-1.6-3.02-1.39-4.77.08C40.56,25.02,23.67,39.1,6.71,53.1c-1.15.95-3.13,1.81-4.42,1.49-2.87-.7-3.05-4.23-.49-6.44,5-4.3,10.04-8.55,15.07-12.82C29.68,24.46,42.49,13.61,55.28,2.73c4.24-3.61,4.56-3.64,8.75-.09,17.6,14.94,35.21,29.86,52.78,44.83,1.21,1.03,2.1,2.43,3.39,3.96Z"/>
</svg>