<svg width="256" height="256" viewBox="0 0 256 256" fill="none" xmlns="http://www.w3.org/2000/svg">
<path d="M10.7202 22V112.07L121.871 113.029" stroke="#346187" stroke-width="10"/>
<path d="M22.5938 92.3602L47.2198 43.108L77.123 92.3602L107.026 51.9031" stroke="#346187" stroke-width="10"/>
<path d="M10.7202 130.971V221.042L121.871 222" stroke="#346187" stroke-width="10"/>
<path d="M22.5938 201.332L47.2198 152.079L77.123 201.332L107.026 160.875M47.2198 187.636L64.4796 160.875L96.4445 187.636" stroke="#346187" stroke-width="10"/>
<path d="M142.939 22V112.07L254.09 113.029" stroke="#346187" stroke-width="10"/>
<path d="M154.812 92.3602L179.439 43.108L209.342 92.3602L217.04 65.5884L179.439 92.3602" stroke="#346187" stroke-width="10"/>
<path d="M142.939 130.971V221.042L254.09 222" stroke="#346187" stroke-width="10"/>
<path d="M154.812 201.332L179.439 152.079L209.342 201.332L239.245 160.875" stroke="#346187" stroke-width="10"/>
</svg>
