<?xml version="1.0" encoding="UTF-8"?>
<svg id="Layer_1" data-name="Layer 1" xmlns="http://www.w3.org/2000/svg" viewBox="0 0 119.51 119.03">
  <path d="m59.8,0c33.39.02,59.73,26.46,59.71,59.93-.03,33.16-26.61,59.14-60.48,59.1C26.3,118.99-.06,92.21,0,59.03.06,26.54,26.97-.02,59.8,0Zm.08,112.01c29.14-.01,52.53-23.18,52.54-52.05.01-29.5-23.3-53.02-52.57-53.03-29.12,0-52.77,23.75-52.76,53,0,28.98,23.44,52.09,52.8,52.08Z"/>
  <path d="m74.29,86.24v6.87h-28.99v-6.75h7.18v-30.55h-7.09v-7.04h21.7c0,1.01,0,2.05,0,3.09,0,10.14,0,20.28,0,30.42q0,3.95,3.84,3.96c1.07,0,2.15,0,3.36,0Z"/>
  <path d="m59.75,26.5c4.12.05,7.37,3.41,7.27,7.49-.1,3.93-3.36,6.87-7.56,6.81-4.26-.06-7.09-2.99-6.97-7.23.11-4.15,3.17-7.13,7.27-7.07Z"/>
</svg>