<?xml version="1.0" encoding="UTF-8"?>
<svg id="Layer_1" data-name="Layer 1" xmlns="http://www.w3.org/2000/svg" viewBox="0 0 414 705">
  <defs>
    <style>
      .cls-1, .cls-2 {
        stroke-width: 0px;
      }

      .cls-2 {
        fill: #fff;
      }
    </style>
  </defs>
  <path class="cls-2" d="M414,443v262c-138,0-276,0-414,0C0,470,0,235,0,0c138,0,276,0,414,0,0,117,0,234,0,351-9.29-4.21-19.06-5.07-30.45-3.2,15.81-38.47,16.74-75.94.03-112.99-16.68-37-44.66-61.99-83.28-74.25-53.92-17.12-118.89-.14-155.59,55.73-32.82,49.96-28.88,116.53,10.71,162.89,19.72,23.09,44.57,38.62,74.3,44.64,48.13,9.74,90.42-3.13,127.03-37.1.89,2.89,1.23,4.85,2.07,6.56,2.76,5.61,4.77,11.95,8.8,16.48,4.76,5.35,11.16,9.32,17.13,13.5,9.63,6.75,19.49,13.18,29.25,19.75Z"/>
  <path class="cls-1" d="M414,443c-9.76-6.57-19.62-13-29.25-19.75-5.96-4.18-12.37-8.15-17.13-13.5-4.03-4.53-6.04-10.87-8.8-16.48-.84-1.71-1.18-3.67-2.07-6.56-36.6,33.97-78.89,46.84-127.03,37.1-29.73-6.02-54.58-21.55-74.3-44.64-39.59-46.36-43.53-112.93-10.71-162.89,36.7-55.87,101.67-72.85,155.59-55.73,38.62,12.26,66.6,37.25,83.28,74.25,16.7,37.04,15.77,74.52-.03,112.99,11.38-1.87,21.15-1.01,30.45,3.2v92ZM258.5,384.31c52.02.89,95.22-41.73,94.67-94.51-.55-52.21-41.77-92.73-93.11-93.35-52.7-.64-94.98,41.94-94.93,94.07.05,52.95,43.28,94.29,93.37,93.79Z"/>
  <path class="cls-2" d="M258.5,384.31c-50.08.5-93.31-40.84-93.37-93.79-.05-52.14,42.23-94.71,94.93-94.07,51.34.62,92.56,41.14,93.11,93.35.55,52.78-42.65,95.4-94.67,94.51Z"/>
</svg>