<svg xmlns="http://www.w3.org/2000/svg" width="13.7" height="13.6" viewBox="0 0 13.7 13.6">
  <g id="maxmize_" data-name="maxmize " transform="translate(-199.8 -109.3)">
    <g id="Group_669" data-name="Group 669">
      <path id="Path_1081" data-name="Path 1081" d="M206.5,122.8h-5.4a1.324,1.324,0,0,1-1.3-1.3v-5.4h5.4a1.324,1.324,0,0,1,1.3,1.3Zm-6.1-6.1v4.9a.789.789,0,0,0,.8.8h4.9v-4.9a.789.789,0,0,0-.8-.8Z" fill="#1c3460"/>
      <path id="Path_1082" data-name="Path 1082" d="M211.2,109.3h-9a2.326,2.326,0,0,0-2.3,2.3v2.7h.5v-2.7a1.793,1.793,0,0,1,1.8-1.8h9a1.793,1.793,0,0,1,1.8,1.8v9a1.793,1.793,0,0,1-1.8,1.8h-2.7v.5h2.7a2.326,2.326,0,0,0,2.3-2.3v-9A2.473,2.473,0,0,0,211.2,109.3Z" fill="#1c3460"/>
      <path id="Path_1083" data-name="Path 1083" d="M211.1,111.8h-2.6a.3.3,0,1,0,0,.6h1.9l-3.1,3.1a.354.354,0,0,0,.5.5l3.1-3.1v1.9a.265.265,0,0,0,.3.3c.1,0,.2,0,.2-.1s.1-.1.1-.2v-2.6c0-.1,0-.2-.1-.2C211.2,111.8,211.2,111.8,211.1,111.8Z" fill="#1c3460"/>
    </g>
  </g>
</svg>
