<svg width="12" height="11" viewBox="0 0 12 11" fill="none" xmlns="http://www.w3.org/2000/svg">
<path d="M0.717287 0.349609C0.674814 0.350081 0.633192 0.362781 0.596562 0.386447C0.559932 0.410113 0.529571 0.443921 0.508497 0.484507C0.487423 0.525093 0.476371 0.571043 0.476441 0.617788C0.47651 0.664533 0.487699 0.710443 0.508893 0.750954L3.1482 4.62966V5.69951C3.1483 5.74507 3.15895 5.78983 3.17915 5.82958C3.19935 5.86933 3.22842 5.90276 3.26363 5.92669C3.29883 5.95061 3.339 5.96428 3.38034 5.96634C3.42168 5.96845 3.46281 5.9589 3.49986 5.93863L4.47202 5.40369C4.51234 5.38168 4.54631 5.34778 4.57014 5.30574C4.59397 5.26374 4.60671 5.21528 4.60695 5.16574V4.62966L7.24782 0.750954C7.26901 0.710443 7.2802 0.664533 7.28029 0.617788C7.28033 0.571043 7.26931 0.525093 7.24821 0.484507C7.22715 0.443921 7.19677 0.410113 7.16014 0.386447C7.12351 0.362781 7.0819 0.350081 7.03944 0.349609H0.717287ZM1.14345 0.884543H6.61377L4.15422 4.42038C4.13245 4.46182 4.12129 4.50898 4.12192 4.55684V4.99947L3.63584 5.2672V4.55684C3.63551 4.50874 3.62345 4.46162 3.60093 4.42038L1.14345 0.884543Z" fill="#5C6D84"/>
<path d="M4.97193 1.28613C4.92943 1.28661 4.88782 1.2993 4.85119 1.32297C4.81455 1.34664 4.78418 1.38045 4.76312 1.42103C4.74206 1.46162 4.73099 1.50757 4.73108 1.55431C4.73112 1.60106 4.74231 1.64697 4.7635 1.68747L7.40281 5.5662V6.63603C7.40294 6.68159 7.41357 6.72635 7.43378 6.7661C7.45395 6.80585 7.48305 6.83928 7.51823 6.86321C7.55346 6.88714 7.59362 6.90081 7.63498 6.90287C7.67629 6.90497 7.71743 6.89542 7.75449 6.87515L8.72665 6.34021C8.76694 6.3182 8.80094 6.28431 8.82476 6.24226C8.84859 6.20026 8.86135 6.1518 8.86157 6.10226V5.5662L11.5024 1.68747C11.5236 1.64697 11.5348 1.60106 11.5349 1.55431C11.535 1.50757 11.5239 1.46162 11.5028 1.42103C11.4818 1.38045 11.4514 1.34664 11.4148 1.32297C11.3781 1.2993 11.3365 1.28661 11.2941 1.28613H4.97193ZM5.39807 1.82107H10.8684L8.40884 5.35691C8.38705 5.39834 8.37591 5.44549 8.37655 5.49335V5.936L7.89047 6.20373V5.49335C7.89012 5.44526 7.87808 5.39816 7.85558 5.35691L5.39807 1.82107Z" fill="#5C6D84"/>
<path d="M0.717287 5.03174C0.674814 5.03221 0.633192 5.0449 0.596562 5.06859C0.559932 5.09223 0.529571 5.12604 0.508497 5.16663C0.487423 5.20723 0.476371 5.25316 0.476441 5.29993C0.47651 5.34666 0.487699 5.39259 0.508893 5.43309L3.1482 9.31181V10.3816C3.1483 10.4272 3.15895 10.472 3.17915 10.5117C3.19935 10.5515 3.22842 10.5849 3.26363 10.6088C3.29883 10.6327 3.339 10.6464 3.38034 10.6485C3.42168 10.6506 3.46281 10.641 3.49986 10.6208L4.47202 10.0858C4.51234 10.0638 4.54631 10.0299 4.57014 9.98787C4.59397 9.94587 4.60671 9.89741 4.60695 9.84787V9.31181L7.24782 5.43309C7.26901 5.39259 7.2802 5.34666 7.28029 5.29993C7.28033 5.25316 7.26931 5.20723 7.24821 5.16663C7.22715 5.12604 7.19677 5.09223 7.16014 5.06859C7.12351 5.0449 7.0819 5.03221 7.03944 5.03174H0.717287ZM1.14345 5.56668H6.61377L4.15422 9.10251C4.13245 9.14395 4.12129 9.1911 4.12192 9.23895V9.68161L3.63584 9.94933V9.23895C3.63551 9.19087 3.62345 9.14376 3.60093 9.10251L1.14345 5.56668Z" fill="#5C6D84"/>
</svg>
