<svg xmlns="http://www.w3.org/2000/svg" width="40.876" height="40.876" viewBox="0 0 40.876 40.876">
  <g id="Group_2" data-name="Group 2" transform="translate(-588.562 -589.562)">
    <g id="QR_Code" data-name="QR Code" transform="translate(593 594)">
      <path id="Path_23" data-name="Path 23" d="M4,13h6a3,3,0,0,0,3-3V4a3,3,0,0,0-3-3H4A3,3,0,0,0,1,4v6a3,3,0,0,0,3,3ZM3,4A1,1,0,0,1,4,3h6a1,1,0,0,1,1,1v6a1,1,0,0,1-1,1H4a1,1,0,0,1-1-1ZM5,8V6A1,1,0,0,1,6,5H8A1,1,0,0,1,9,6V8A1,1,0,0,1,8,9H6A1,1,0,0,1,5,8Zm5,11H4a3,3,0,0,0-3,3v6a3,3,0,0,0,3,3h6a3,3,0,0,0,3-3V22A3,3,0,0,0,10,19Zm1,9a1,1,0,0,1-1,1H4a1,1,0,0,1-1-1V22a1,1,0,0,1,1-1h6a1,1,0,0,1,1,1ZM9,24v2a1,1,0,0,1-1,1H6a1,1,0,0,1-1-1V24a1,1,0,0,1,1-1H8A1,1,0,0,1,9,24ZM28,1H22a3,3,0,0,0-3,3v6a3,3,0,0,0,3,3h6a3,3,0,0,0,3-3V4a3,3,0,0,0-3-3Zm1,9a1,1,0,0,1-1,1H22a1,1,0,0,1-1-1V4a1,1,0,0,1,1-1h6a1,1,0,0,1,1,1ZM27,6V8a1,1,0,0,1-1,1H24a1,1,0,0,1-1-1V6a1,1,0,0,1,1-1h2A1,1,0,0,1,27,6ZM15,7V2a1,1,0,0,1,2,0V6a1,1,0,0,1,0,2H16a1,1,0,0,1-1-1Zm-2,7a1,1,0,0,1,2,0v2a1,1,0,0,1-1,1H9a1,1,0,0,1,0-2h4ZM1,16a1,1,0,0,1,1-1H6a1,1,0,0,1,0,2H2A1,1,0,0,1,1,16Zm30-1a1,1,0,0,1-1,1H19v1a1,1,0,0,1-2,0V15a1,1,0,0,1,1-1H30a1,1,0,0,1,1,1ZM15.08,11.38a.942.942,0,0,1,0-.76,1.027,1.027,0,0,1,.21-.33,1.149,1.149,0,0,1,.33-.21.933.933,0,0,1,.569-.06.607.607,0,0,1,.19.06.559.559,0,0,1,.17.09.952.952,0,0,1,.16.12,1.027,1.027,0,0,1,.21.33.939.939,0,0,1-.37,1.21.559.559,0,0,1-.17.09.62.62,0,0,1-.19.06A1.247,1.247,0,0,1,16,12a1,1,0,0,1-.38-.08,1.158,1.158,0,0,1-.33-.21,1.034,1.034,0,0,1-.21-.33ZM31,26v4a1,1,0,0,1-1,1H22a1,1,0,0,1,0-2h7V27H19a1,1,0,0,1,0-2H30a1,1,0,0,1,1,1ZM20,22V21H17v5a1,1,0,0,1-2,0V20a1,1,0,0,1,1-1h5a1,1,0,0,1,1,1v2a1,1,0,0,1-2,0Zm11-3v4a1,1,0,0,1-1,1H25a1,1,0,0,1,0-2h4V20H27a1,1,0,0,1,0-2h3a1,1,0,0,1,1,1ZM19,30a1,1,0,0,1-1,1H15a1,1,0,0,1,0-2h3a1,1,0,0,1,1,1Zm4.439-10.17-.149-.12A1.03,1.03,0,0,1,23,19a1,1,0,0,1,.08-.38.931.931,0,0,1,.21-.33,1.534,1.534,0,0,1,.149-.12.762.762,0,0,1,.181-.09.632.632,0,0,1,.18-.06,1.046,1.046,0,0,1,.91.27,1.027,1.027,0,0,1,.21.33A.845.845,0,0,1,25,19a1.386,1.386,0,0,1-.021.2.619.619,0,0,1-.06.18.776.776,0,0,1-.09.18l-.12.15A1.054,1.054,0,0,1,24,20a1.542,1.542,0,0,1-.2-.02.649.649,0,0,1-.18-.06.762.762,0,0,1-.181-.09Z"/>
    </g>
    <path id="Path_24" data-name="Path 24" d="M2,7.45A5.45,5.45,0,0,1,7.45,2H12.9a1.363,1.363,0,1,1,0,2.725H7.45A2.725,2.725,0,0,0,4.725,7.45V12.9A1.363,1.363,0,1,1,2,12.9ZM30.613,3.363A1.363,1.363,0,0,1,31.976,2h5.45a5.45,5.45,0,0,1,5.45,5.45V12.9a1.363,1.363,0,1,1-2.725,0V7.45a2.725,2.725,0,0,0-2.725-2.725h-5.45A1.363,1.363,0,0,1,30.613,3.363ZM3.363,30.613a1.363,1.363,0,0,1,1.363,1.363v5.45A2.725,2.725,0,0,0,7.45,40.151H12.9a1.363,1.363,0,1,1,0,2.725H7.45A5.45,5.45,0,0,1,2,37.426v-5.45A1.363,1.363,0,0,1,3.363,30.613Zm38.151,0a1.362,1.362,0,0,1,1.363,1.363v5.45a5.45,5.45,0,0,1-5.45,5.45h-5.45a1.363,1.363,0,1,1,0-2.725h5.45a2.725,2.725,0,0,0,2.725-2.725v-5.45A1.362,1.362,0,0,1,41.513,30.613Z" transform="translate(586.562 587.562)" fill-rule="evenodd"/>
  </g>
</svg>
