<svg xmlns="http://www.w3.org/2000/svg" width="48.174" height="46.924" viewBox="0 0 48.174 46.924">
  <path id="Path_25" data-name="Path 25" d="M74.074,70.026a3.044,3.044,0,0,1-2.749,3.311l-1.212.112A3.043,3.043,0,0,1,66.8,70.7l-.112-1.206c0-.041,0-.08,0-.121A26.418,26.418,0,0,0,38.406,46.059l5.708,5.987a3.015,3.015,0,0,1-.02,4.263l-.853.845a3.013,3.013,0,0,1-4.262-.02L26.9,44.465l-.115-.116a3.02,3.02,0,0,1,.019-4.267l.118-.117L39.115,27.411a3.014,3.014,0,0,1,4.262.019l.845.852a3.015,3.015,0,0,1-.019,4.263l-5.988,6.166a33.641,33.641,0,0,1,35.766,30.13l-.017.006Z" transform="translate(-25.913 -26.538)" fill-rule="evenodd"/>
</svg>
