<svg width="14" height="14" viewBox="0 0 14 14" fill="none" xmlns="http://www.w3.org/2000/svg">
<path d="M4.70377 5.05697C4.31872 5.42778 4.05256 5.90474 3.93916 6.42721C3.82577 6.94974 3.87024 7.49418 4.06691 7.99128C4.26359 8.48843 4.60362 8.91588 5.04373 9.21926C5.48385 9.52258 6.00423 9.68821 6.53865 9.69496C7.07307 9.70177 7.59741 9.54943 8.04513 9.25729C8.49278 8.96522 8.84352 8.54658 9.05277 8.05456C9.26195 7.56261 9.3202 7.01945 9.22014 6.49428C9.12001 5.96905 8.86606 5.48549 8.49053 5.10503C7.99188 4.60158 7.3154 4.31438 6.60698 4.30539C5.89858 4.2964 5.21502 4.56634 4.70377 5.05697ZM8.00068 8.42952C7.60891 8.78359 7.09973 8.97961 6.57172 8.97961C6.04373 8.97961 5.53453 8.78359 5.14273 8.42952C4.90418 8.2024 4.72551 7.91977 4.6227 7.60675C4.5199 7.29379 4.49616 6.96022 4.55357 6.63582C4.61098 6.31143 4.74775 6.00632 4.95171 5.74766C5.15568 5.48901 5.42048 5.28488 5.72247 5.15351C6.02446 5.02212 6.35426 4.96757 6.68245 4.99471C7.01071 5.02185 7.32708 5.12984 7.60338 5.30905C7.87975 5.48825 8.10743 5.7331 8.26619 6.02174C8.42489 6.3104 8.50974 6.63383 8.51314 6.9633C8.54705 7.23077 8.51834 7.50247 8.42926 7.75696C8.34018 8.01139 8.19407 8.24165 8.00068 8.42952Z" fill="#5C6D84"/>
<path d="M13.0441 8.00375V5.99287L11.065 5.54461C10.989 5.25337 10.8852 4.97086 10.7552 4.70135L11.8705 2.8851L10.5073 1.45805L8.77243 2.62563C8.51958 2.47888 8.2485 2.36972 7.9669 2.3013L7.53498 0.225586H5.61419L5.18232 2.3013C4.90412 2.38088 4.63426 2.48954 4.37682 2.62563L2.64188 1.45805L1.27873 2.8851L2.39403 4.70135C2.25386 4.96601 2.1496 5.24983 2.08423 5.54461L0.10144 5.99677V8.00375L2.08423 8.45585C2.1602 8.74709 2.26398 9.02961 2.39403 9.29913L1.27873 11.1153L2.64188 12.5424L4.37682 11.3748C4.62963 11.5216 4.90074 11.6307 5.18232 11.6991L5.61419 13.7749H7.53498L7.9669 11.6991C8.2451 11.6196 8.51497 11.5109 8.77243 11.3748L10.5073 12.5424L11.8705 11.1153L10.7552 9.29913C10.8954 9.03443 10.9996 8.75065 11.065 8.45585L13.0441 8.00375ZM11.0613 10.9904L10.3797 11.704L8.76871 10.6013L8.5837 10.731C8.27057 10.9203 7.93802 11.072 7.59236 11.1831L7.40735 11.248L7.03748 13.2588H6.10805L5.73811 11.248L5.55317 11.1831C5.19814 11.1001 4.8616 10.9466 4.56176 10.731L4.37682 10.6013L2.76211 11.702L2.08053 10.9885L3.13389 9.30204L3.00996 9.10836C2.8291 8.78055 2.68421 8.43242 2.57807 8.07055L2.51609 7.87687L0.595282 7.48966V6.51277L2.51609 6.12549L2.57807 5.93188C2.65739 5.56021 2.804 5.20791 3.00996 4.89402L3.13389 4.70038L2.08236 3.01096L2.76395 2.29743L4.37496 3.40016L4.55993 3.27042C4.87305 3.08107 5.20562 2.9294 5.55131 2.81829L5.73628 2.75343L6.10622 0.742579H7.03281L7.40275 2.68856L7.58769 2.75343C7.94275 2.83643 8.27927 2.98991 8.5791 3.20556L8.76404 3.33529L10.3788 2.2345L11.0604 2.94802L10.007 4.63455L10.1309 4.82818C10.3118 5.15597 10.4567 5.50414 10.5628 5.86607L10.6248 6.05967L12.4836 6.44696V7.42087L10.5628 7.80816L10.5008 8.00176C10.4215 8.37347 10.275 8.72577 10.069 9.03965L9.94506 9.23325L11.0613 10.9904Z" fill="#5C6D84"/>
</svg>
