<svg width="15" height="15" viewBox="0 0 15 15" fill="none" xmlns="http://www.w3.org/2000/svg">
<path d="M12.6901 4.21298L9.21939 0.742537C9.0098 0.532515 8.71759 0.412109 8.41799 0.412109H3.11134C2.48761 0.412109 1.98047 0.919248 1.98047 1.54298V13.8697C1.98047 14.4934 2.48761 15.0006 3.11134 15.0006H6.46485C6.7082 15.0006 6.90544 14.8033 6.90544 14.56C6.90544 14.3166 6.7082 14.1194 6.46485 14.1194H3.11134C2.97377 14.1194 2.86165 14.0073 2.86165 13.8697V1.54299C2.86165 1.40541 2.97377 1.2933 3.11134 1.2933H8.2647V4.03572C8.2647 4.6589 8.77183 5.16561 9.39501 5.16561H12.1384V8.44556C12.1384 8.68891 12.3356 8.88614 12.579 8.88614C12.8223 8.88614 13.0196 8.68891 13.0196 8.44556V5.00896C13.0196 4.71283 12.8992 4.42249 12.6901 4.21302L12.6901 4.21298ZM9.14638 4.03574V1.91551L11.5153 4.28446H9.39509C9.25807 4.28446 9.14639 4.17278 9.14639 4.03575L9.14638 4.03574Z" fill="black"/>
<path d="M11.0602 6.97184C11.0602 6.72849 10.863 6.53125 10.6196 6.53125H4.37809C4.13474 6.53125 3.9375 6.72849 3.9375 6.97184C3.9375 7.21519 4.13474 7.41243 4.37809 7.41243H10.6196C10.863 7.41243 11.0602 7.21519 11.0602 6.97184Z" fill="black"/>
<path d="M4.37711 4.88508H6.87969C7.12304 4.88508 7.32028 4.68785 7.32028 4.4445C7.32028 4.20114 7.12304 4.00391 6.87969 4.00391H4.37711C4.13376 4.00391 3.93652 4.20114 3.93652 4.4445C3.93652 4.68774 4.13376 4.88508 4.37711 4.88508V4.88508Z" fill="black"/>
<path d="M6.72395 9.50309C6.72395 9.25974 6.52671 9.0625 6.28336 9.0625H4.37907C4.13571 9.0625 3.93848 9.25974 3.93848 9.50309C3.93848 9.74644 4.13571 9.94368 4.37907 9.94368H6.28336C6.52671 9.94368 6.72395 9.74633 6.72395 9.50309Z" fill="black"/>
<path d="M4.37907 11.5898C4.13571 11.5898 3.93848 11.7871 3.93848 12.0304C3.93848 12.2738 4.13571 12.471 4.37907 12.471H5.56382C5.80717 12.471 6.00441 12.2738 6.00441 12.0304C6.00441 11.7871 5.80717 11.5898 5.56382 11.5898H4.37907Z" fill="black"/>
<path d="M9.92594 8.81445C8.22085 8.81445 6.83398 10.2013 6.83398 11.907C6.83398 13.6121 8.22087 14.9989 9.92594 14.9989C11.631 14.9989 13.0185 13.612 13.0185 11.907C13.0185 10.2014 11.6311 8.81445 9.92594 8.81445V8.81445ZM9.92594 14.1177C8.70701 14.1177 7.71469 13.126 7.71469 11.9065C7.71469 10.687 8.70645 9.69524 9.92594 9.69524C11.1454 9.69524 12.1372 10.687 12.1372 11.9065C12.1372 13.126 11.1449 14.1177 9.92594 14.1177Z" fill="black"/>
<path d="M10.5506 11.1148L9.60428 11.878L9.37033 11.5803C9.22008 11.3889 8.94339 11.3551 8.75152 11.5059C8.56007 11.6561 8.52685 11.9333 8.6771 12.1247L9.1862 12.7734C9.25865 12.8659 9.36584 12.9256 9.48286 12.9388C9.49903 12.9408 9.51564 12.9418 9.5328 12.9418C9.63268 12.9418 9.73059 12.9074 9.80893 12.8443L11.1033 11.8016C11.2932 11.6488 11.3226 11.3718 11.1704 11.1818C11.0181 10.9929 10.7405 10.9621 10.5506 11.1148L10.5506 11.1148Z" fill="black"/>
</svg>
