<svg width="26" height="22" viewBox="0 0 26 22" fill="none" xmlns="http://www.w3.org/2000/svg">
<g clip-path="url(#clip0_461_16)">
<path d="M0.571952 0C0.472121 0.00100658 0.374292 0.0281313 0.288197 0.0786765C0.202101 0.129222 0.130738 0.201426 0.0812056 0.288108C0.0316729 0.37479 0.00569664 0.472929 0.00586014 0.572765C0.00602365 0.672601 0.0323213 0.770655 0.0821376 0.857175L6.28563 9.14116V11.4261C6.28587 11.5234 6.3109 11.619 6.35838 11.7039C6.40585 11.7888 6.47419 11.8602 6.55694 11.9113C6.63968 11.9624 6.7341 11.9916 6.83126 11.996C6.92842 12.0005 7.02511 11.9801 7.11219 11.9368L9.39718 10.7943C9.49195 10.7473 9.57179 10.6749 9.6278 10.5851C9.6838 10.4954 9.71376 10.3919 9.71433 10.2861V9.14116L15.9215 0.857175C15.9713 0.770655 15.9976 0.672601 15.9978 0.572765C15.9979 0.472929 15.972 0.37479 15.9224 0.288108C15.8729 0.201426 15.8015 0.129222 15.7154 0.0786765C15.6293 0.0281313 15.5315 0.00100658 15.4317 0H0.571952ZM1.57362 1.14249H14.4312L8.65021 8.6942C8.59904 8.7827 8.5728 8.88342 8.57429 8.98564V9.93098L7.4318 10.5028V8.98564C7.43101 8.8829 7.40268 8.78226 7.34975 8.6942L1.57362 1.14249Z" fill="#5C6D84"/>
<path d="M10.572 2C10.4721 2.00101 10.3743 2.02813 10.2882 2.07868C10.2021 2.12922 10.1307 2.20143 10.0812 2.28811C10.0317 2.37479 10.0057 2.47293 10.0059 2.57277C10.006 2.6726 10.0323 2.77066 10.0821 2.85717L16.2856 11.1412V13.4261C16.2859 13.5234 16.3109 13.619 16.3584 13.7039C16.4058 13.7888 16.4742 13.8602 16.5569 13.9113C16.6397 13.9624 16.7341 13.9916 16.8313 13.996C16.9284 14.0005 17.0251 13.9801 17.1122 13.9368L19.3972 12.7943C19.4919 12.7473 19.5718 12.6749 19.6278 12.5851C19.6838 12.4954 19.7138 12.3919 19.7143 12.2861V11.1412L25.9215 2.85717C25.9713 2.77066 25.9976 2.6726 25.9978 2.57277C25.9979 2.47293 25.972 2.37479 25.9224 2.28811C25.8729 2.20143 25.8015 2.12922 25.7154 2.07868C25.6293 2.02813 25.5315 2.00101 25.4317 2H10.572ZM11.5736 3.14249H24.4312L18.6502 10.6942C18.599 10.7827 18.5728 10.8834 18.5743 10.9856V11.931L17.4318 12.5028V10.9856C17.431 10.8829 17.4027 10.7823 17.3498 10.6942L11.5736 3.14249Z" fill="#5C6D84"/>
<path d="M0.571952 10C0.472121 10.001 0.374292 10.0281 0.288197 10.0787C0.202101 10.1292 0.130738 10.2014 0.0812056 10.2881C0.0316729 10.3748 0.00569664 10.4729 0.00586014 10.5728C0.00602365 10.6726 0.0323213 10.7707 0.0821376 10.8572L6.28563 19.1412V21.4261C6.28587 21.5234 6.3109 21.619 6.35838 21.7039C6.40585 21.7888 6.47419 21.8602 6.55694 21.9113C6.63968 21.9624 6.7341 21.9916 6.83126 21.996C6.92842 22.0005 7.02511 21.9801 7.11219 21.9368L9.39718 20.7943C9.49195 20.7473 9.57179 20.6749 9.6278 20.5851C9.6838 20.4954 9.71376 20.3919 9.71433 20.2861V19.1412L15.9215 10.8572C15.9713 10.7707 15.9976 10.6726 15.9978 10.5728C15.9979 10.4729 15.972 10.3748 15.9224 10.2881C15.8729 10.2014 15.8015 10.1292 15.7154 10.0787C15.6293 10.0281 15.5315 10.001 15.4317 10H0.571952ZM1.57362 11.1425H14.4312L8.65021 18.6942C8.59904 18.7827 8.5728 18.8834 8.57429 18.9856V19.931L7.4318 20.5028V18.9856C7.43101 18.8829 7.40268 18.7823 7.34975 18.6942L1.57362 11.1425Z" fill="#5C6D84"/>
</g>
<defs>
<clipPath id="clip0_461_16">
<rect width="25.9993" height="22" fill="white"/>
</clipPath>
</defs>
</svg>
