<svg width="177" height="142" viewBox="0 0 177 142" fill="none" xmlns="http://www.w3.org/2000/svg">
<rect x="121.43" y="51.2595" width="34.5947" height="39.408" transform="rotate(24.9946 121.43 51.2595)" fill="#0072C7"/>
<path d="M126.868 39.595L104.769 86.9979L136.124 101.615L152.833 65.7741L143.427 61.3889C142.85 61.1198 142.623 60.3839 142.92 59.7456L147.771 49.3401L126.868 39.595ZM149.323 51.4705L145.55 59.5634L152.866 62.9741L149.323 51.4705ZM123.47 60.5298L140.193 68.3258C140.77 68.5949 140.996 69.3307 140.699 69.969C140.401 70.6078 139.692 70.9069 139.115 70.6379L122.392 62.842C121.815 62.5728 121.588 61.837 121.886 61.1987C122.184 60.56 122.893 60.2608 123.47 60.5298ZM119.158 69.7794L140.061 79.5243C140.639 79.7935 140.865 80.5293 140.567 81.1676C140.27 81.8063 139.56 82.1055 138.983 81.8365L118.08 72.0915C117.503 71.8223 117.276 71.0866 117.574 70.4483C117.872 69.8095 118.581 69.5104 119.158 69.7794ZM114.846 79.029L135.749 88.7739C136.327 89.0431 136.553 89.7788 136.255 90.4172C135.958 91.0559 135.248 91.355 134.671 91.086L113.768 81.3411C113.191 81.0719 112.964 80.3361 113.262 79.6978C113.56 79.0591 114.269 78.7599 114.846 79.029Z" fill="#F2F2F3"/>
<rect x="122.099" y="59.96" width="21.9219" height="3.02568" rx="1.51284" transform="rotate(24.9946 122.099 59.96)" fill="white"/>
<rect x="117.753" y="69.2839" width="26.0004" height="3.02568" rx="1.51284" transform="rotate(24.9946 117.753 69.2839)" fill="white"/>
<rect x="113.406" y="78.6079" width="26.0004" height="3.02568" rx="1.51284" transform="rotate(24.9946 113.406 78.6079)" fill="white"/>
<path d="M61.4723 95.5423C61.8694 94.8087 62.5133 94.2392 63.29 93.9348C64.0667 93.6304 64.9261 93.6108 65.7159 93.8793C66.5057 94.1478 67.175 94.6872 67.6053 95.4019C68.0355 96.1166 68.1989 96.9605 68.0666 97.7841C67.6964 100.11 64.0228 100.717 64.0228 100.717" stroke="#F2CC88" stroke-width="2.35496" stroke-linecap="round" stroke-linejoin="round"/>
<path d="M63.375 105.384L63.3871 105.386" stroke="#F2CC88" stroke-width="2.35496" stroke-linecap="round" stroke-linejoin="round"/>
<rect width="34.5947" height="39.408" transform="matrix(-0.906348 0.422532 0.422532 0.906348 36.9146 51.2595)" fill="#0072C7"/>
<path d="M31.4771 39.5947L53.5759 86.9977L22.2211 101.615L5.51215 65.7738L14.9186 61.3886C15.4957 61.1196 15.7223 60.3836 15.4247 59.7453L10.5738 49.3398L31.4771 39.5947ZM9.02243 51.4702L12.7953 59.5632L5.47936 62.9738L9.02243 51.4702ZM34.8752 60.5296L18.1526 68.3255C17.5751 68.5947 17.3489 69.3305 17.6464 69.9688C17.9442 70.6075 18.6534 70.9067 19.2304 70.6377L35.953 62.8417C36.5305 62.5725 36.7567 61.8367 36.4592 61.1984C36.1614 60.5597 35.4522 60.2606 34.8752 60.5296ZM39.1872 69.7791L18.284 79.5241C17.7066 79.7933 17.4803 80.529 17.7779 81.1673C18.0756 81.8061 18.7849 82.1052 19.3619 81.8362L40.2651 72.0913C40.8425 71.8221 41.0688 71.0863 40.7712 70.448C40.4735 69.8093 39.7643 69.5101 39.1872 69.7791ZM43.4993 79.0287L22.5961 88.7736C22.0186 89.0428 21.7924 89.7786 22.0899 90.4169C22.3877 91.0556 23.0969 91.3548 23.674 91.0858L44.5772 81.3408C45.1546 81.0717 45.3809 80.3359 45.0833 79.6976C44.7856 79.0588 44.0763 78.7597 43.4993 79.0287Z" fill="#F2F2F3"/>
<rect width="21.9219" height="3.02568" rx="1.51284" transform="matrix(-0.906348 0.422532 0.422532 0.906348 36.2451 59.96)" fill="white"/>
<rect width="26.0004" height="3.02568" rx="1.51284" transform="matrix(-0.906348 0.422532 0.422532 0.906348 40.5913 69.2839)" fill="white"/>
<rect width="26.0004" height="3.02568" rx="1.51284" transform="matrix(-0.906348 0.422532 0.422532 0.906348 44.938 78.6079)" fill="white"/>
<rect x="46.8403" y="47.2124" width="63.1892" height="40.9876" transform="rotate(-1.73983 46.8403 47.2124)" fill="white"/>
<path d="M108.127 42.8241L49.1622 44.6152C46.5315 44.6951 44.513 46.8409 44.5928 49.4707L45.6748 85.091C45.7547 87.7217 47.9006 89.7402 50.5304 89.6603L55.6816 89.5039L59.7511 97.0592C60.7972 99.0017 63.5372 98.9184 64.4635 96.9161L68.0669 89.1277L91.9599 88.4019L96.0294 95.9572C97.0755 97.8997 99.8155 97.8165 100.742 95.8141L104.345 88.0257L109.496 87.8692C112.127 87.7893 114.146 85.6435 114.066 83.0137L112.984 47.3934C112.904 44.7633 110.649 42.7475 108.128 42.8241L108.127 42.8241ZM76.9634 78.6559L56.7969 79.2685C55.5912 79.3051 54.4649 78.3522 54.4249 77.0364C54.385 75.7214 55.3412 74.7044 56.657 74.6645L76.8236 74.0519C78.0292 74.0153 79.1555 74.9682 79.1955 76.284C79.2355 77.5998 78.1691 78.6193 76.9634 78.6559ZM76.6571 68.5726L56.4906 69.1852C55.2849 69.2218 54.1586 68.2689 54.1187 66.9531C54.082 65.7475 55.035 64.6212 56.3507 64.5812L76.5173 63.9686C77.7229 63.932 78.8493 64.8849 78.8892 66.2007C78.9292 67.5165 77.8628 68.536 76.6571 68.5726ZM76.3542 58.5996L56.1877 59.2121C54.982 59.2487 53.8557 58.295 53.8157 56.98C53.7758 55.665 54.732 54.6481 56.0478 54.6081L76.2144 53.9955C77.42 53.9589 78.5463 54.9118 78.5863 56.2276C78.6262 57.5426 77.5599 58.5629 76.3542 58.5996ZM95.3334 80.2926C93.6897 80.3425 92.334 79.0675 92.2841 77.423C92.2341 75.7793 93.5091 74.4237 95.1536 74.3737C96.7973 74.3238 98.1529 75.5988 98.2029 77.2433C98.2528 78.887 96.8677 80.246 95.3334 80.2926ZM102.088 64.2901C100.932 65.9704 99.7498 66.7746 98.8928 67.4588C97.9299 68.2564 97.3917 68.6018 97.3323 70.2488C97.3523 70.9063 96.8175 71.3617 96.16 71.3817L93.9682 71.4483C93.6394 71.4583 93.3074 71.3589 93.078 71.0369C92.7459 70.9368 92.6225 70.5013 92.6125 70.1725C92.8247 66.3261 94.2098 64.968 96.0329 63.5964C96.7838 63.0249 97.428 62.5669 98.1648 61.5574C98.9024 60.5479 98.9685 59.1195 98.2743 57.9339C97.813 57.1796 96.7827 55.7854 94.2621 55.8619C90.9739 55.9618 90.0476 57.9642 89.7721 59.728C89.6827 60.3888 89.1479 60.8443 88.5997 60.8609L86.4079 60.9275C86.0792 60.9375 85.637 60.8415 85.4084 60.5194C85.1823 60.3066 85.0597 59.8719 85.0497 59.5431C85.478 55.5809 88.0949 51.4426 94.1231 51.2595C97.74 51.1496 100.862 52.8102 102.486 55.7223C103.997 58.5276 103.768 61.8256 102.088 64.2903L102.088 64.2901Z" fill="#2297F4"/>
<path d="M36.325 22.0036C36.2817 20.8792 36.6378 19.7757 37.3301 18.8887C38.0225 18.0017 39.0064 17.3883 40.1077 17.1572C41.209 16.9261 42.3565 17.0922 43.347 17.6261C44.3375 18.16 45.1071 19.0273 45.5195 20.0742C46.688 23.028 42.8416 26.2577 42.8416 26.2577" stroke="#ADC5E0" stroke-width="3.17653" stroke-linecap="round" stroke-linejoin="round"/>
<path d="M45.2969 32.1182L45.3133 32.1117" stroke="#ADC5E0" stroke-width="3.17653" stroke-linecap="round" stroke-linejoin="round"/>
<path d="M150.924 44.4182C151.46 43.4286 152.328 42.6605 153.376 42.2499C154.423 41.8394 155.583 41.8128 156.648 42.175C157.713 42.5372 158.616 43.2647 159.196 44.2288C159.777 45.1928 159.997 46.3312 159.819 47.4422C159.319 50.5792 154.364 51.3988 154.364 51.3988" stroke="#F2CC88" stroke-width="3.17653" stroke-linecap="round" stroke-linejoin="round"/>
<path d="M153.492 57.6924L153.509 57.6952" stroke="#F2CC88" stroke-width="3.17653" stroke-linecap="round" stroke-linejoin="round"/>
<path d="M115.082 121.122C115.479 120.388 116.123 119.819 116.9 119.514C117.677 119.21 118.536 119.19 119.326 119.459C120.116 119.727 120.785 120.267 121.215 120.981C121.645 121.696 121.809 122.54 121.676 123.364C121.306 125.689 117.633 126.297 117.633 126.297" stroke="#3693D1" stroke-width="2.35496" stroke-linecap="round" stroke-linejoin="round"/>
<path d="M116.986 130.963L116.998 130.965" stroke="#3693D1" stroke-width="2.35496" stroke-linecap="round" stroke-linejoin="round"/>
</svg>
