<svg width="18" height="17" viewBox="0 0 18 17" fill="none" xmlns="http://www.w3.org/2000/svg">
<g clip-path="url(#clip0_461_11)">
<path d="M16.8206 17.0006H1.16634C0.856487 17.0006 0.55933 16.8776 0.340233 16.6585C0.121137 16.4394 -0.00195312 16.1422 -0.00195312 15.8324C-0.00195312 15.5225 0.121137 15.2253 0.340233 15.0062C0.55933 14.7872 0.856487 14.6641 1.16634 14.6641H16.819C17.1288 14.6641 17.426 14.7872 17.6451 15.0062C17.8642 15.2253 17.9873 15.5225 17.9873 15.8324C17.9873 16.1422 17.8642 16.4394 17.6451 16.6585C17.426 16.8776 17.1288 17.0006 16.819 17.0006H16.8206Z" fill="#5C6D84"/>
<path d="M16.8206 9.67056H1.16634C0.856487 9.67056 0.55933 9.54747 0.340233 9.32838C0.121137 9.10928 -0.00195312 8.81212 -0.00195312 8.50227C-0.00195312 8.19242 0.121137 7.89527 0.340233 7.67617C0.55933 7.45707 0.856487 7.33398 1.16634 7.33398H16.819C17.1288 7.33398 17.426 7.45707 17.6451 7.67617C17.8642 7.89527 17.9873 8.19242 17.9873 8.50227C17.9873 8.81212 17.8642 9.10928 17.6451 9.32838C17.426 9.54747 17.1288 9.67056 16.819 9.67056H16.8206Z" fill="#5C6D84"/>
<path d="M16.8206 2.33658H1.16634C0.856487 2.33658 0.55933 2.21349 0.340233 1.99439C0.121137 1.7753 -0.00195312 1.47814 -0.00195312 1.16829C-0.00195312 0.85844 0.121137 0.561283 0.340233 0.342186C0.55933 0.12309 0.856487 0 1.16634 0H16.819C17.1288 0 17.426 0.12309 17.6451 0.342186C17.8642 0.561283 17.9873 0.85844 17.9873 1.16829C17.9873 1.47814 17.8642 1.7753 17.6451 1.99439C17.426 2.21349 17.1288 2.33658 16.819 2.33658H16.8206Z" fill="#5C6D84"/>
</g>
<defs>
<clipPath id="clip0_461_11">
<rect width="17.9876" height="17" fill="white"/>
</clipPath>
</defs>
</svg>
