<?xml version="1.0" encoding="UTF-8"?>
<svg id="Layer_1" data-name="Layer 1" xmlns="http://www.w3.org/2000/svg" viewBox="0 0 118.99 90.02">
  <path d="m59.55,90.01c-16.82,0-33.64,0-50.45,0-6.56,0-9.09-2.5-9.09-8.99C0,57.03,0,33.05,0,9.06,0,2.58,2.59,0,9.06,0,42.69,0,76.33,0,109.97,0c6.59,0,9.02,2.42,9.02,9.01,0,24.09,0,48.18,0,72.26,0,6.21-2.5,8.73-8.69,8.74-16.92.01-33.83,0-50.75,0Zm-.16-82.97c-16.23,0-32.45.07-48.68-.06-2.86-.02-3.72.76-3.71,3.68.11,22.9.11,45.79,0,68.69-.01,2.83.69,3.78,3.63,3.77,32.55-.1,65.1-.09,97.66,0,2.84,0,3.72-.76,3.71-3.69-.12-22.9-.11-45.79,0-68.69.01-2.81-.67-3.78-3.63-3.76-16.32.14-32.65.07-48.98.07Z"/>
  <path d="m39.94,52.44c6.44,1.24,12.38,2.06,15.96,7.55,2.79,4.28,3.24,9.11,3.34,14.29H15c-.01-5.58.53-10.94,4.17-15.44,3.65-4.51,9.11-5.25,13.73-6.14-2.82-2.57-6.19-4.91-8.56-8.01-2.6-3.4-2.5-7.73-1.19-11.79,2-6.22,8.55-10.38,15.17-9.8,6.71.59,11.98,5.32,13.21,11.89,1.39,7.42-2.03,12.86-11.58,17.47Z"/>
  <path d="m81.86,44.83c-3.47,0-6.94,0-10.42,0-2.43,0-4.19-1.09-4.17-3.61.02-2.37,1.74-3.43,4.04-3.43,7.14-.01,14.29,0,21.43,0,2.19,0,3.76.87,3.76,3.24,0,2.49-1.33,3.84-3.92,3.82-3.57-.03-7.14,0-10.71,0Z"/>
  <path d="m81.98,30.01c-3.48,0-6.96.01-10.44,0-2.38-.01-4.28-.97-4.27-3.54,0-2.63,1.98-3.41,4.35-3.41,6.96.01,13.92,0,20.88,0,2.23,0,4.05.59,4,3.28-.05,2.6-1.58,3.7-4.08,3.68-3.48-.02-6.96,0-10.44,0Z"/>
</svg>