<?xml version="1.0" encoding="utf-8"?>
<!-- Generator: Adobe Illustrator 23.0.2, SVG Export Plug-In . SVG Version: 6.00 Build 0)  -->
<svg version="1.1" id="Layer_1" xmlns="http://www.w3.org/2000/svg" xmlns:xlink="http://www.w3.org/1999/xlink" x="0px" y="0px"
	 viewBox="0 0 161 156" style="enable-background:new 0 0 161 156;" xml:space="preserve">
<g>
	<rect x="47" y="9" width="7" height="22.8"/>
	<rect x="108" y="9" width="7" height="22.8"/>
	<rect x="30" y="50" width="23" height="23"/>
	<rect x="70" y="50" width="23" height="23"/>
	<rect x="110" y="50" width="23" height="23"/>
	<rect x="30" y="83" width="23" height="23"/>
	<rect x="70" y="83" width="23" height="23"/>
	<path d="M111,139c-43.2,5.8-79.8-4.2-92-8.2V130v-6.9V28.6c0-3.1,2.9-5.6,6.5-5.6h111c3.6,0,6.5,2.5,6.5,5.6V96h7V28.6
		c0-6.4-6.1-11.6-13.5-11.6h-111C18.1,17,12,22.2,12,28.6V136h0.6c3.3,1.3,18.8,6.8,41.6,9.8c8.4,1.1,18.5,2,29.6,2
		c8.5,0,17.6-0.5,27.1-1.7L111,139L111,139z"/>
	<rect x="130" y="102" width="7" height="40"/>
	<rect x="113.5" y="118.5" width="40" height="7"/>
</g>
</svg>
