<svg xmlns="http://www.w3.org/2000/svg" width="15.483" height="15.483" viewBox="0 0 15.483 15.483">
  <g id="cancel" transform="translate(-2.5 -2.5)">
    <path id="Path_3864" data-name="Path 3864" d="M35.563,29.5l-2.722,2.722L30.119,29.5l-.619.619,2.722,2.722L29.5,35.563l.619.619,2.722-2.722,2.722,2.722.619-.619L33.46,32.841l2.722-2.722Z" transform="translate(-22.599 -22.599)" fill="#be1a25"/>
    <path id="Path_3865" data-name="Path 3865" d="M10.242,2.5a7.742,7.742,0,1,0,7.742,7.742A7.749,7.749,0,0,0,10.242,2.5Zm0,14.62a6.878,6.878,0,1,1,6.878-6.878A6.879,6.879,0,0,1,10.242,17.12Z" transform="translate(0 0)" fill="#be1a25"/>
  </g>
</svg>
