<?xml version="1.0" encoding="UTF-8"?>
<svg id="Layer_1" data-name="Layer 1" xmlns="http://www.w3.org/2000/svg" viewBox="0 0 119.11 119.1">
  <path d="m29.89,74.69c0-11.76-.02-23.51,0-35.27.01-6.9,2.43-9.25,9.42-9.25,16.24,0,32.49,0,48.73,0,5.69,0,8.77,2.83,8.79,8.57.08,24.01.08,48.02,0,72.03-.02,5.79-2.84,8.33-8.55,8.33-16.74,0-33.48.01-50.22,0-5.57,0-8.09-2.37-8.12-7.94-.08-12.15-.02-24.31-.03-36.46Zm59.58,37.26c.09-.94.2-1.52.2-2.1,0-23.29-.02-46.58.05-69.87,0-2.29-.83-2.83-2.98-2.82-15.53.08-31.06.1-46.59-.02-2.55-.02-3.13.81-3.12,3.22.08,22.89.05,45.78.05,68.68,0,.95.09,1.9.13,2.91h52.25Z"/>
  <path d="m21.94,82.67v6.96c-5.33,0-10.49.24-15.62-.08-4.05-.25-6.28-3.24-6.3-7.69-.05-8.76-.02-17.53-.02-26.29,0-15.54,0-31.08,0-46.61C.01,2.5,2.43.01,8.77.01,25.41,0,42.04,0,58.68.02c4.71,0,7.13,2.01,8.01,6.92-1.21,0-2.33,0-3.45,0-17.33,0-34.67,0-52,0q-4.16,0-4.16,4c0,22.61,0,45.22,0,67.83q0,3.9,3.95,3.9c3.56,0,7.13,0,10.92,0Z"/>
  <path d="m104.87,104.33v-6.94c1.69,0,3.24-.05,4.79.01,1.79.07,2.4-.72,2.4-2.5-.04-23.49-.06-46.99.02-70.48.01-2.7-1.34-2.78-3.35-2.78-17.62.04-35.25.02-52.87.02-1.08,0-2.17,0-3.26,0,.05-4.34,2.93-6.99,7.57-7,13.94-.04,27.88-.01,41.82-.01,3.09,0,6.17-.05,9.26,0,4.84.09,7.82,3.04,7.82,7.9.03,24.69.03,49.37,0,74.06,0,4.83-2.76,7.56-7.59,7.7-2.16.06-4.32.01-6.62.01Z"/>
</svg>