<svg xmlns="http://www.w3.org/2000/svg" width="22.553" height="15.244" viewBox="0 0 22.553 15.244">
  <g id="Double_Check" data-name="Double Check" transform="translate(-12.097 -18.506)">
    <path id="Path_3845" data-name="Path 3845" d="M34.509,19.445,22.169,33.557a.564.564,0,0,1-.423.192h0a.564.564,0,0,1-.429-.22L19.838,31.6l-1.693,1.953a.564.564,0,0,1-.423.192h0a.564.564,0,0,1-.429-.22l-5.08-6.655a.566.566,0,0,1,.9-.689L17.8,32.3l1.4-1.6-2.93-3.822a.564.564,0,0,1,.892-.689L21.853,32.3l11.8-13.6a.566.566,0,1,1,.852.745Zm-13.2,10.161a.564.564,0,0,0,.423-.192l8.721-9.969A.564.564,0,1,0,29.6,18.7l-8.727,9.975a.561.561,0,0,0,.429.931Z" transform="translate(0 0)"/>
  </g>
</svg>
