<svg width="16" height="15" viewBox="0 0 16 15" fill="none" xmlns="http://www.w3.org/2000/svg">
<path d="M12.6999 1.13868C12.0636 1.13679 11.4528 1.38956 11.0039 1.84046L6.65552 6.19112C5.90814 6.93369 5.48915 7.94466 5.4922 8.99829V10.7464H7.24034C8.29322 10.7489 9.30329 10.3299 10.0453 9.5831L14.3982 5.23468C14.8478 4.78451 15.1003 4.17419 15.1001 3.53783C15.0998 2.90147 14.8468 2.2913 14.3968 1.84143C13.9467 1.39167 13.3364 1.13891 12.7002 1.13891L12.6999 1.13868ZM13.5103 4.3468L9.16186 8.69746C8.6534 9.20883 7.96151 9.49542 7.24034 9.49322H6.74541V8.99829C6.74381 8.27787 7.03023 7.58668 7.54117 7.07882L11.8918 2.72816C12.1842 2.45397 12.5986 2.35243 12.9847 2.46038C13.3708 2.56833 13.6725 2.86989 13.7803 3.25599C13.8882 3.64209 13.7867 4.05656 13.5125 4.34897L13.5103 4.3468Z" fill="black"/>
<path fill-rule="evenodd" clip-rule="evenodd" d="M8.23526 1.13477H4.11769C1.84355 1.13477 0 2.97832 0 5.25245V10.7427C0 13.0168 1.84355 14.8604 4.11769 14.8604H9.60795C11.8821 14.8604 13.7256 13.0169 13.7256 10.7427V9.37069H12.3531V10.7427C12.3531 12.2588 11.124 13.4878 9.60795 13.4878H4.11769C2.6016 13.4878 1.37256 12.2588 1.37256 10.7427V5.25245C1.37256 3.73636 2.6016 2.50733 4.11769 2.50733H8.23526V1.13477Z" fill="black"/>
</svg>
