<?xml version="1.0" encoding="UTF-8"?>
<svg id="Layer_1" data-name="Layer 1" xmlns="http://www.w3.org/2000/svg" viewBox="0 0 104.89 104.43">
  <path d="m65.78,52.3c0,2.19.05,4.38-.01,6.57-.12,4.01-2.94,6.99-6.98,7.13-4.29.14-8.6.15-12.9-.01-4.13-.15-6.91-3.01-7.02-7.1-.11-4.28-.11-8.56,0-12.84.11-4.24,2.71-6.88,6.98-7.01,4.3-.14,8.6-.13,12.9,0,4.32.12,6.95,2.96,7.02,7.3.03,1.99,0,3.98,0,5.97Z"/>
  <path d="m27.09,52.58c0,2.09.08,4.18-.02,6.26-.19,4.11-2.88,6.97-6.99,7.13-4.29.17-8.6.17-12.89,0-4.15-.16-6.99-3.2-7.09-7.4-.09-4.08-.09-8.16,0-12.23.1-4.47,2.9-7.25,7.35-7.34,4.09-.08,8.19-.07,12.29,0,4.53.08,7.18,2.74,7.34,7.3.07,2.09.01,4.18,0,6.26Z"/>
  <path d="m91.25,39c2.1,0,4.2-.07,6.29.01,4.21.17,7,2.71,7.2,6.88.2,4.27.19,8.56.01,12.82-.18,4.41-3.09,7.17-7.52,7.28-4.09.11-8.2.12-12.29,0-4.24-.13-7.01-3.03-7.07-7.28-.06-4.18-.06-8.35,0-12.53.06-4.39,2.66-7.01,7.08-7.18,2.09-.08,4.2-.01,6.29-.01Z"/>
  <path d="m77.87,90.85c0-2.28-.08-4.57.02-6.85.15-3.68,2.47-6.3,6.13-6.46,4.78-.2,9.58-.21,14.36,0,3.81.16,6.24,2.88,6.38,6.96.15,4.27.17,8.55,0,12.81-.17,4.34-2.99,6.97-7.32,7.05-4.09.08-8.18.07-12.28,0-4.58-.07-7.21-2.72-7.3-7.25-.04-2.09,0-4.17,0-6.26,0,0,0,0,.01,0Z"/>
  <path d="m52.55.02c2.1,0,4.2-.05,6.3,0,4.07.11,6.82,2.72,6.91,6.72.1,4.38.1,8.76,0,13.14-.09,4.08-2.97,6.88-7.07,6.94-4.2.07-8.4.06-12.6,0-4.19-.06-7.08-2.72-7.21-6.82-.14-4.47-.16-8.96.01-13.43.15-3.95,2.8-6.4,6.76-6.54,2.3-.08,4.6-.01,6.9-.02Z"/>
  <path d="m13.8,77.45c2.2,0,4.4-.09,6.59.02,3.85.19,6.43,2.53,6.61,6.37.21,4.56.2,9.15.03,13.72-.14,3.87-3.11,6.68-7.01,6.79-4.19.12-8.39.1-12.59,0-4.14-.09-7.2-3.04-7.32-7.16-.13-4.27-.14-8.55,0-12.82.14-4.2,2.87-6.78,7.08-6.91,2.2-.07,4.39-.01,6.59,0Z"/>
  <path d="m65.78,90.65c0,2.19.05,4.38-.01,6.57-.12,3.99-3,7.02-6.98,7.13-4.3.12-8.6.11-12.9,0-4.03-.11-6.92-3.04-7.03-7.09-.11-4.28-.11-8.56,0-12.84.11-4.35,2.58-6.82,6.98-6.94,4.4-.12,8.8-.13,13.19,0,4.08.13,6.63,2.83,6.73,6.89.05,2.09,0,4.18.01,6.27Z"/>
  <path d="m13.68.02c2.2,0,4.4-.05,6.59.01,3.68.11,6.47,2.36,6.67,5.95.27,4.86.27,9.75.02,14.61-.18,3.62-3.15,6.16-6.82,6.23-4.29.09-8.59.08-12.89,0-3.88-.07-6.93-2.8-7.11-6.66-.21-4.47-.19-8.95,0-13.42C.31,2.59,3.15.1,7.38.03c2.1-.03,4.2,0,6.29,0Z"/>
  <path d="m91.19.02c2,0,4-.02,5.99,0,4.58.05,7.39,2.55,7.57,7.05.17,4.17.17,8.36,0,12.53-.19,4.59-3.11,7.2-7.78,7.24-3.9.03-7.79.04-11.69,0-4.59-.04-7.35-2.67-7.42-7.15-.07-4.27-.08-8.55,0-12.83.09-4.27,2.69-6.75,7.02-6.84,2.1-.04,4.2,0,6.29,0Z"/>
</svg>