<svg xmlns="http://www.w3.org/2000/svg" width="23.082" height="23.082" viewBox="0 0 23.082 23.082">
    <g id="icon-2" transform="translate(-2 -2)">
        <g id="Group_1155" data-name="Group 1155" transform="translate(2 2)">
            <g id="Group_1151" data-name="Group 1151" transform="translate(6.597 7.038)">
                <path id="Path_2963" data-name="Path 2963"
                    d="M62.66,56.433a.387.387,0,0,1-.387-.387V50.99a.387.387,0,0,1,.238-.357l4.963-2.072a.387.387,0,0,1,.536.357v4.846a.387.387,0,0,1-.225.352L62.822,56.4A.388.388,0,0,1,62.66,56.433Zm.387-5.186v4.195l4.188-1.927V49.5Z"
                    transform="translate(-57.205 -46.563)" fill="#a1a1a1"></path>
                <g id="Group_1150" data-name="Group 1150">
                    <path id="Path_2964" data-name="Path 2964"
                        d="M41.525,56.413a.387.387,0,0,1-.163-.036l-5.051-2.335a.387.387,0,0,1-.225-.351V48.827a.387.387,0,0,1,.534-.358l5.051,2.072a.387.387,0,0,1,.24.358v5.127a.387.387,0,0,1-.387.387Zm-4.664-2.97,4.277,1.977V51.158L36.861,49.4Z"
                        transform="translate(-36.087 -46.49)" fill="#a1a1a1"></path>
                    <path id="Path_2965" data-name="Path 2965"
                        d="M41.542,43.179a.386.386,0,0,1-.148-.029l-5.068-2.09a.387.387,0,0,1,.007-.719l5.015-1.95a.386.386,0,0,1,.282,0l5.015,1.967a.387.387,0,0,1,.008.717l-4.963,2.072A.38.38,0,0,1,41.542,43.179Zm-4.027-2.466,4.026,1.66,3.932-1.642-3.985-1.563Z"
                        transform="translate(-36.087 -38.365)" fill="#a1a1a1"></path>
                </g>
            </g>
            <g id="Group_1154" data-name="Group 1154" transform="translate(0 0)">
                <g id="Group_1152" data-name="Group 1152">
                    <path id="Path_2966" data-name="Path 2966"
                        d="M58.8,4.494a1.247,1.247,0,1,1,1.247-1.247A1.248,1.248,0,0,1,58.8,4.494Zm0-1.72a.473.473,0,1,0,.473.473A.473.473,0,0,0,58.8,2.774Z"
                        transform="translate(-46.805 -2)" fill="#a1a1a1"></path>
                    <path id="Path_2967" data-name="Path 2967"
                        d="M19.521,20.769A1.246,1.246,0,1,1,20.4,20.4,1.244,1.244,0,0,1,19.521,20.769Zm0-1.719a.472.472,0,1,0,.334.138A.472.472,0,0,0,19.521,19.05Z"
                        transform="translate(-15.125 -15.126)" fill="#a1a1a1"></path>
                    <path id="Path_2968" data-name="Path 2968"
                        d="M3.247,60.052A1.247,1.247,0,1,1,4.494,58.8,1.248,1.248,0,0,1,3.247,60.052Zm0-1.719a.473.473,0,1,0,.473.473A.473.473,0,0,0,3.247,58.332Z"
                        transform="translate(-2 -46.805)" fill="#a1a1a1"></path>
                    <path id="Path_2969" data-name="Path 2969"
                        d="M19.521,99.339a1.246,1.246,0,0,1-.882-2.128h0a1.247,1.247,0,1,1,.882,2.128Zm-.334-1.581a.473.473,0,1,0,.807.334.473.473,0,0,0-.807-.334Z"
                        transform="translate(-15.125 -78.489)" fill="#a1a1a1"></path>
                    <path id="Path_2970" data-name="Path 2970"
                        d="M58.8,115.609a1.247,1.247,0,1,1,1.247-1.247A1.248,1.248,0,0,1,58.8,115.609Zm0-1.72a.473.473,0,1,0,.473.473A.473.473,0,0,0,58.8,113.889Z"
                        transform="translate(-46.805 -91.609)" fill="#a1a1a1"></path>
                    <path id="Path_2971" data-name="Path 2971"
                        d="M98.088,99.338a1.246,1.246,0,1,1,.882-.365A1.244,1.244,0,0,1,98.088,99.338Zm0-1.719a.472.472,0,1,0,.334.138A.472.472,0,0,0,98.088,97.62Z"
                        transform="translate(-78.485 -78.489)" fill="#a1a1a1"></path>
                    <path id="Path_2972" data-name="Path 2972"
                        d="M114.363,60.052A1.247,1.247,0,1,1,115.61,58.8,1.248,1.248,0,0,1,114.363,60.052Zm0-1.719a.473.473,0,1,0,.473.473A.473.473,0,0,0,114.363,58.332Z"
                        transform="translate(-91.61 -46.805)" fill="#a1a1a1"></path>
                    <path id="Path_2973" data-name="Path 2973"
                        d="M98.088,20.768a1.246,1.246,0,1,1,.882-.365h0A1.242,1.242,0,0,1,98.088,20.768Zm.608-.638h0Zm-.608-1.08a.472.472,0,1,0,.334.138A.472.472,0,0,0,98.088,19.05Z"
                        transform="translate(-78.485 -15.126)" fill="#a1a1a1"></path>
                </g>
                <g id="Group_1153" data-name="Group 1153" transform="translate(2.903 2.903)">
                    <path id="Path_2974" data-name="Path 2974"
                        d="M62.387,19.921A.387.387,0,0,1,62,19.534V17.387a.387.387,0,1,1,.774,0v2.147A.387.387,0,0,1,62.387,19.921Z"
                        transform="translate(-53.29 -17)" fill="#a1a1a1"></path>
                    <path id="Path_2975" data-name="Path 2975"
                        d="M32.085,32.472a.386.386,0,0,1-.274-.113l-1.518-1.518a.387.387,0,1,1,.547-.547l1.518,1.518a.387.387,0,0,1-.274.661Z"
                        transform="translate(-27.629 -27.629)" fill="#a1a1a1"></path>
                    <path id="Path_2976" data-name="Path 2976"
                        d="M19.534,62.774H17.387a.387.387,0,1,1,0-.774h2.147a.387.387,0,1,1,0,.774Z"
                        transform="translate(-17 -53.29)" fill="#fff"></path>
                    <path id="Path_2977" data-name="Path 2977"
                        d="M30.568,88.269a.387.387,0,0,1-.274-.661l1.518-1.518a.387.387,0,0,1,.547.547l-1.518,1.518A.386.386,0,0,1,30.568,88.269Z"
                        transform="translate(-27.63 -72.627)" fill="#a1a1a1"></path>
                    <path id="Path_2978" data-name="Path 2978"
                        d="M62.387,98.83A.387.387,0,0,1,62,98.443V96.3a.387.387,0,1,1,.774,0v2.147A.387.387,0,0,1,62.387,98.83Z"
                        transform="translate(-53.29 -80.636)" fill="#fff"></path>
                    <path id="Path_2979" data-name="Path 2979"
                        d="M87.881,88.269a.386.386,0,0,1-.274-.113L86.09,86.638a.387.387,0,0,1,.547-.547l1.518,1.518a.387.387,0,0,1-.274.661Z"
                        transform="translate(-72.626 -72.627)" fill="#a1a1a1"></path>
                    <path id="Path_2980" data-name="Path 2980"
                        d="M98.442,62.774H96.3a.387.387,0,1,1,0-.774h2.147a.387.387,0,0,1,0,.774Z"
                        transform="translate(-80.635 -53.29)" fill="#fff"></path>
                    <path id="Path_2981" data-name="Path 2981"
                        d="M86.364,32.472a.387.387,0,0,1-.274-.661l1.518-1.518a.387.387,0,1,1,.547.547l-1.518,1.518A.386.386,0,0,1,86.364,32.472Z"
                        transform="translate(-72.627 -27.629)" fill="#a1a1a1"></path>
                </g>
            </g>
        </g>
    </g>
</svg>