<?xml version="1.0" encoding="utf-8"?><!-- Generator: Adobe Illustrator 23.0.2, SVG Export Plug-In . SVG Version: 6.00 Build 0)  -->
<svg version="1.1" id="Layer_1" xmlns="http://www.w3.org/2000/svg"
    xmlns:xlink="http://www.w3.org/1999/xlink" x="0px" y="0px" viewBox="0 0 300 300"
    style="enable-background:new 0 0 300 300;" xml:space="preserve">
<path d="M215.2,135.9c0,6.4,0,12.8,0,19.2c0,34.9,0,69.9,0,104.8c0,5.3-3.7,8.6-8.3,7.4c-3.1-0.8-4.9-3.3-5-7.1c-0.1-7,0-14,0-21
	c0-30.5,0-61.1,0-91.6c0-2,0.6-3,2.3-4.1C208,141.2,211.4,138.5,215.2,135.9z" />
    <g>
	<ellipse cx="144.4" cy="142.4" rx="18" ry="18" />
        <path d="M161.1,204.2l-13.4-9.9c-0.9-0.5-1.2-1.4-1.4-2.4c-2.2-19.6-3.9-24.8-6.5-27.2l-11.6,9l2.9-8.7h0.2c0.7,0.3,1.5,0.2,2-0.5
		l1.2-2c0.3-0.7,0.2-1.5-0.5-2l-2.6-1.5c-0.7-0.3-1.5-0.2-2,0.5l-1.2,2c-0.3,0.7-0.2,1.5,0.5,2h0.2l-6.5,6.6l2.7-14.6
		c-2.4-0.9-7.5-1.5-26-0.7c-4.9,0.2-9.7,1.9-13.6,4.6L70.3,170c-0.7,0.5-1.4,1.2-1.9,1.9c-0.2,0-0.3-0.2-0.7-0.2
		c-1.4-0.3-2.7,0-3.9,0.9l-4.3,2.9l-2.9-4.3c-1.5-2.2-4.4-2.7-6.6-1.2l-16.8,11.4c-2.2,1.5-2.7,4.4-1.2,6.6l17.5,25.3
		c1.5,2.2,4.4,2.7,6.6,1.2L73,203c2.2-1.5,2.7-4.4,1.2-6.6l-2.9-4.3l4.3-2.9c1.7-1.2,2.4-3.1,2.2-4.9c0.7-0.2,1.4-0.5,1.9-1
		L95,172.8c1.5-1,3.4-1.7,5.3-1.9c0.7,0,1.4,0,2,0l-14.5,16.8c-2.9,3.2-4.3,7.7-3.7,12.1c0.3,4.1,2.4,7.8,5.6,10.5L54,252
		c-3.4,3.9-2.9,9.9,1,13.3c1.7,1.5,3.9,2.2,6.1,2.2c2.7,0,5.3-1,7.1-3.2l36.2-42.4l8.8,6.8l-7.3,27c-1.4,4.9,1.5,10.2,6.6,11.6
		c0.9,0.2,1.7,0.3,2.4,0.3c4.1,0,7.8-2.7,9-6.8l7.8-28.9c1.7-6.3-0.5-12.8-5.6-16.8l-9.5-7.5l13.8-16c0,0.7,0.2,1.4,0.3,2
		c0.7,5.4,3.4,10.4,7.8,13.6l13.4,9.9c1.5,1,3.2,1.5,4.8,1.5c2.6,0,4.9-1.2,6.6-3.2C165.5,211.9,164.9,206.9,161.1,204.2z
		 M68.3,187.9l-5.6-8.2l4.3-2.9c0,1.5,0.5,3.2,1.5,4.6c1,1.4,2.4,2.4,3.7,3.1l0.5,0.7L68.3,187.9z" />
</g>
    <g>
	<path d="M192,138.6c-22.9,0-41.6-18.7-41.6-41.6s18.7-41.9,41.6-41.9s41.6,18.7,41.6,41.6S214.8,138.6,192,138.6z M218,92.5h6.3
		c-0.7-5.6-3.2-10.9-6.3-15.5l-4.6,4.6c-0.7,0.7-2.1,1.4-3.2,1.4c-1.1,0-2.1-0.4-3.2-1.4c-1.8-1.8-1.8-4.6,0-6.3l4.6-4.6
		C206,66.4,199.4,64,192,64c-7.4,0-14.4,2.5-19.7,6.7l4.2,4.6c1.8,1.8,1.8,4.6,0,6.3c-0.7,0.7-2.1,1.4-3.2,1.4
		c-1.1,0-2.1-0.4-3.2-1.4l-4.2-4.6c-3.5,4.6-5.6,9.9-6.3,15.5h6.3c2.5,0,4.2,2.1,4.2,4.2s-2.1,4.2-4.2,4.2h-6.3
		c0.7,6,2.8,11.3,6.3,15.8l4.6-4.6c1.8-1.8,4.6-1.8,6.3,0c1.8,1.8,1.8,4.6,0,6.3l-4.6,4.6c4.6,3.5,9.9,5.6,15.5,6.3v-6.3
		c0-2.5,2.1-4.2,4.2-4.2c2.5,0,4.2,2.1,4.2,4.2v6.3c5.6-0.7,10.9-3.2,15.5-6.3l-4.6-4.6c-1.8-1.8-1.8-4.6,0-6.3
		c1.8-1.8,4.6-1.8,6.3,0l4.6,4.6c3.5-4.6,5.6-9.9,6.3-15.5H218c-2.5,0-4.2-2.1-4.2-4.2S215.6,92.5,218,92.5z" />
        <path d="M192,101.3h-9.9c-2.5,0-4.2-2.1-4.2-4.2s2.1-4.2,4.2-4.2h5.6V77c0-2.5,2.1-4.2,4.2-4.2c2.5,0,4.2,2.1,4.2,4.2v20.1
		C196.2,99.2,194.4,101.3,192,101.3z" />
</g>
    <path d="M159.8,56.7h-58c-3.8,0-6.8,3.1-6.8,6.9v1.8V70v40.8c0,2.4,1.9,4.3,4.3,4.3h3.5c2.8,0,5-2.2,5-5V70h45.4
	C154.5,65.2,156.7,60.8,159.8,56.7z" />
</svg>
