<svg xmlns="http://www.w3.org/2000/svg" width="23.082" height="23.082" viewBox="0 0 23.082 23.082">
    <g id="icon-1" transform="translate(-6.058 -5)">
        <path id="Path_2959" data-name="Path 2959"
            d="M106.727,108.972a.563.563,0,0,0-.661-.442l-8.319,1.652a4.7,4.7,0,0,1,.219,1.1l8.319-1.652A.562.562,0,0,0,106.727,108.972Z"
            transform="translate(-77.019 -86.956)" fill="#a1a1a1"></path>
        <path id="Path_2960" data-name="Path 2960"
            d="M14.571,20.124a4.776,4.776,0,0,1,1.1-.234l-2.464-12.4a2.645,2.645,0,0,0-2.947-2.1.559.559,0,0,0-1.042-.052.623.623,0,0,1-.454.341l-2.239.445a.571.571,0,0,0-.468.547.563.563,0,0,0,.672.56l2.253-.448a.623.623,0,0,1,.55.142.56.56,0,0,0,.944-.43A1.521,1.521,0,0,1,12.1,7.706Z"
            transform="translate(0)" fill="#a1a1a1"></path>
        <path id="Path_2961" data-name="Path 2961"
            d="M45.6,101.528a4.284,4.284,0,1,0,5.036,3.367A4.284,4.284,0,0,0,45.6,101.528Zm1.152,5.8a1.629,1.629,0,1,1,1.28-1.915A1.631,1.631,0,0,1,46.755,107.327Z"
            transform="translate(-30.32 -81.013)" fill="#a1a1a1"></path>
        <path id="Path_2962" data-name="Path 2962"
            d="M67.238,44.631l1.884-.374,4.8-.954a.4.4,0,0,0,.316-.472l-2.2-11.09a.4.4,0,0,0-.472-.316l-11.09,2.2a.4.4,0,0,0-.316.472l1.582,7.964a4.794,4.794,0,0,1,.84.106l-1.556-7.833,4.008-.8.3,1.5,2.286-.454-.3-1.5,4.008-.8,2.046,10.3-4.008.8-.3-1.5-2.286.454.3,1.5-1.539.306a4.813,4.813,0,0,1,.42.736l1.276-.254Z"
            transform="translate(-45.44 -22.191)" fill="#a1a1a1"></path>
    </g>
</svg>