<?xml version="1.0" encoding="UTF-8"?>
<svg id="Layer_1" data-name="Layer 1" xmlns="http://www.w3.org/2000/svg" viewBox="0 0 119.05 119.41">
  <path d="m86.34,74.22c3.97.66,7.87.94,11.55,2,12.62,3.64,21.09,15.18,21.14,28.38.02,4.88,0,9.75,0,14.81H44.9c0-1.78-.04-3.63,0-5.47.14-5.08-.33-10.29.62-15.22,2.72-14.1,14.55-23.62,28.88-23.95.85-.02,1.69-.13,2.9-.23-14.77-6.38-19.79-14.75-16.88-27.63,2.32-10.23,11.88-17.15,22.91-16.56,11.29.6,19.18,7.91,20.64,19.13,1.32,10.19-4.26,21.24-17.62,24.74Zm-34.06,38.33c1.39,0,2.57,0,3.75,0,15.82,0,31.64,0,47.47,0q8.56,0,8.48-8.58c-.11-11.82-10.13-21.99-21.9-22.14-5.47-.07-10.95-.07-16.42,0-4.83.07-9.14,1.75-12.96,4.7-8.55,6.62-9.62,15.73-8.42,26.02Zm44.66-59.99c.03-8.65-6.39-15.15-14.97-15.17-8.21-.01-15.09,6.76-15.14,14.9-.05,8.55,6.52,15.17,15.05,15.16,8.31,0,15.03-6.66,15.06-14.9Z"/>
  <path d="m28.51,102.08c1.85-2.02,3.93-4.41,6.16-6.64.66-.65,1.77-.85,2.67-1.25.12,1.01.4,2.03.33,3.02-.29,3.95-1.29,7.48-4.72,10.11-3.21,2.46-7.07,2.78-10.01-.03-3.82-3.65-7.55-7.41-11.2-11.23-2.17-2.28-2.2-6.65-.26-9.15.49-.63,1.07-1.18,1.63-1.75,3.9-3.99,4.06-5.04,1.01-9.61-.42-.62-1.63-.97-2.48-1C1.05,74.17,0,73.1,0,62.37c0-3.1-.03-6.2,0-9.3.06-5.16,2.63-7.76,7.69-7.83.4,0,.8,0,1.19,0,5.05,0,6.13-.71,7.19-5.66.22-1.02-.67-2.57-1.48-3.47-2.13-2.37-4.89-4.42-4.4-8.07.23-1.67.87-3.56,1.96-4.77,3.33-3.71,6.93-7.17,10.5-10.65,3.09-3.01,7.26-2.96,10.42-.02.15.14.28.28.42.42,4.28,4.16,4.31,4.22,9.61,1.71.77-.37,1.54-1.47,1.68-2.33.27-1.66.06-3.39.09-5.09.1-4.25,2.62-7.09,6.78-7.21,5.27-.15,10.56-.15,15.83,0,3.85.11,6.45,2.92,6.63,6.75.03.6.01,1.2.01,1.8,0,5.97.26,6.36,5.94,7.99.68.19,1.74-.13,2.31-.6,1.38-1.13,2.53-2.55,3.86-3.75,2.74-2.47,6.91-2.65,9.53-.19,3.86,3.61,7.64,7.31,11.25,11.17,3.09,3.3,2.5,7.91-1.4,10.96-1.17-2.34-4.28-3.11-4.29-6.49,0-.88-1.48-1.77-2.31-2.63-2.41-2.51-4.84-5-7.08-7.31-.62.08-.92.04-.98.14-3.38,5.53-8.97,4.81-14.05,4.51-3.05-.18-6.04-1.78-8.97-2.96-.51-.21-.81-1.48-.84-2.28-.09-3.19-.04-6.38-.04-9.88h-15.11c0,3.26-.09,6.35.04,9.43.07,1.66-.49,2.49-2.06,3.09-3.99,1.52-7.87,3.33-11.87,4.8-.84.31-2.29-.03-3.02-.62-2-1.63-3.82-3.5-5.61-5.37-1.1-1.15-1.97-1.42-3.19-.13-2.54,2.68-5.13,5.31-7.81,7.84-1.31,1.23-1.03,2.13.06,3.22,1.83,1.83,3.74,3.62,5.34,5.65.62.79.92,2.35.58,3.27-1.4,3.94-3.18,7.75-4.65,11.66-.58,1.54-1.31,2.24-3.02,2.14-2.48-.14-4.98,0-7.47-.05-1.42-.03-2.26.33-2.24,1.98.06,3.7-.1,7.4.11,11.09.04.73,1.28,1.91,2.07,2,2.46.26,4.97.18,7.46.07,1.6-.07,2.48.39,3.08,2.02,1.45,3.93,3.28,7.71,4.7,11.65.33.92.05,2.6-.62,3.26-2.24,2.24-4.78,4.19-7.11,6.17,4.29,4.21,7.73,7.59,11.76,11.55Z"/>
  <path d="m53.04,73.7c-.94.82-1.61,1.41-2.28,1.99q-3.69,3.19-7.06-.25c-10.88-11.1-7.36-29.76,6.81-36.01,1.3-.58,2.75-.83,4.34-.96-1.88,3.58-2.07,7.56-5.64,10.49-7.26,5.97-6.27,17.53,1.37,23.08.71.52,1.46.99,2.46,1.67Z"/>
</svg>