<?xml version="1.0" encoding="UTF-8"?>
<svg id="Layer_1" data-name="Layer 1" xmlns="http://www.w3.org/2000/svg" viewBox="0 0 119 119.03">
  <defs>
    <style>
      .cls-1 {
        fill: #fff;
      }
    </style>
  </defs>
  <path d="m85.58,14.67c3.08,0,6.16-.01,9.24,0,5.15.03,8.69,2.93,8.91,8.03.29,6.84.29,13.72,0,20.56-.22,5.12-3.7,7.98-8.92,8.01-6.26.03-12.52.05-18.78,0-5.54-.05-8.92-3.32-9.02-8.91-.12-6.26-.12-12.52,0-18.78.11-5.68,3.58-8.88,9.33-8.91,3.08-.01,6.16,0,9.24,0Zm11.22,18.37c0-3.08.13-6.17-.1-9.23-.06-.75-1.29-2.01-2.01-2.03-6.05-.16-12.11-.06-18.16-.12-1.77-.02-2.52.69-2.51,2.46.04,5.96.04,11.91,0,17.87,0,1.68.82,2.3,2.38,2.3,6.06-.01,12.11-.03,18.17.01,1.67.01,2.29-.69,2.25-2.33-.08-2.98-.02-5.96-.03-8.93Z"/>
  <path d="m33.74,67.12c3.48,0,6.97-.06,10.45.02,4.44.1,7.67,2.9,7.83,7.35.25,7.05.29,14.13.05,21.18-.18,5.09-3.48,7.84-8.62,7.85-6.47.02-12.94.03-19.41,0-5.27-.02-8.53-2.94-8.67-8.17-.17-6.76-.17-13.53.01-20.3.14-5.1,3.31-7.89,8.5-7.93,3.28-.03,6.57,0,9.85,0Zm-11.34,7.03c0,7.26-.05,14.01.09,20.75.01.55,1.23,1.52,1.9,1.53,6.17.12,12.34.13,18.5-.02.66-.02,1.85-1.2,1.87-1.87.14-6.17.13-12.34,0-18.5-.01-.64-1.06-1.79-1.64-1.81-6.75-.13-13.5-.08-20.73-.08Z"/>
  <path d="m51.92,34.01c0,3.28.04,6.56-.01,9.84-.07,4.5-3.33,8.04-7.81,8.13-6.96.14-13.92.13-20.87,0-4.36-.07-7.94-3.28-8.1-7.62-.26-7.05-.27-14.11-.01-21.16.16-4.45,3.56-7.58,8.02-7.69,6.95-.16,13.92-.16,20.87,0,4.68.11,7.84,3.62,7.9,8.34.04,3.38,0,6.76,0,10.14Zm-7.07-.11c0-2.98-.07-5.97.03-8.95.06-1.76-.53-2.56-2.36-2.55-5.97.05-11.93.04-17.9.01-1.64,0-2.3.73-2.29,2.35.04,5.96.04,11.93,0,17.9-.01,1.83.81,2.39,2.56,2.37,5.87-.07,11.73-.08,17.6,0,1.86.02,2.43-.74,2.38-2.49-.09-2.88-.02-5.77-.02-8.65Z"/>
  <path d="m56.6,14.82h5.81c.07,1.1.17,2.06.17,3.03.01,12.12.02,24.25,0,36.37,0,6.8-1.94,8.74-8.62,8.74-7.84,0-15.68,0-23.75,0v-6.13c3.16,0,6.3,0,9.44,0,4.57,0,9.15-.1,13.71.04,2.45.08,3.29-.76,3.27-3.24-.1-11.83-.04-23.65-.04-35.48,0-1.06,0-2.13,0-3.33Z"/>
  <path d="m.06,89.39h7.06v22.41h22.17v7.18c-7.74,0-15.37.15-23-.06-3.6-.1-6.07-2.83-6.17-6.82-.2-7.44-.06-14.88-.06-22.7Z"/>
  <path d="m7.2,30.45H.03c0-2.48,0-4.83,0-7.18,0-5.07-.07-10.14.02-15.21C.15,2.65,2.82.07,8.24.04,15.28,0,22.33.03,29.58.03v6.72c-.98.06-2.02.19-3.06.19-5.27.02-10.54.12-15.8-.04-2.61-.08-3.71.56-3.59,3.45.24,5.56.07,11.13.07,16.69,0,1.06,0,2.13,0,3.39Z"/>
  <path d="m112.05,89.4h6.86c0,8.2.12,16.23-.07,24.25-.06,2.71-2.77,5.2-5.67,5.27-7.73.17-15.48.06-23.44.06v-6.92h22.31v-22.66Z"/>
  <path d="m89.7,6.96V.03c5.23,0,10.27,0,15.32,0,2.49,0,4.98-.09,7.46.04,3.65.2,6.39,2.7,6.45,6.19.13,7.96.04,15.92.04,24.1h-6.62c-.07-1-.2-2.04-.2-3.09-.02-5.87-.09-11.75.03-17.62.04-2.12-.72-2.76-2.76-2.73-6.46.09-12.92.03-19.74.03Z"/>
  <path d="m82.56,103.49v-6.2h14.79v-14.4h5.66c0,5.32.26,10.74-.11,16.12-.17,2.52-2.34,4.31-4.97,4.41-5.05.2-10.1.06-15.37.06Z"/>
  <path d="m67.52,61.73v-6.4c5.86,0,11.62-.28,17.32.1,3.87.25,7.2,7.4,4.95,10.43-.65.87-2.88.72-4.38.7-.43,0-1.01-1.16-1.23-1.88-.24-.82-.15-1.74-.22-2.94h-16.44Z"/>
  <path d="m73.05,89.41c-.07-.53-.13-.82-.14-1.11-.28-8.45,1.39-10.2,9.78-10.2.5,0,.99,0,1.49,0q5.78,0,4.78,6.18h-9.51c-.2,1.93-.36,3.55-.53,5.13h-5.88Z"/>
  <path d="m66.78,85.59v5.62q-4.05,1.2-4.05,5.68c0,.8,0,1.59,0,2.39q0,5.56-5.92,4.68c0-4.49-.24-9.03.09-13.54.21-2.95,2.9-4.7,6.27-4.81,1.08-.04,2.17,0,3.62,0Z"/>
  <path d="m74.14,67.32v7.32h-14.2v-7.32h14.2Z"/>
  <path d="m20.07,55.97q4.18,0,4.17,4.11,0,3.74-4.55,3.73-4.03,0-4.03-3.97t4.41-3.87Z"/>
  <path d="m103.87,74.67h-6.37v-7.3h6.37v7.3Z"/>
  <path class="cls-1" d="m96.81,33.03c0,2.98-.05,5.96.02,8.93.04,1.64-.58,2.34-2.25,2.33-6.06-.04-12.11-.02-18.17-.01-1.56,0-2.39-.62-2.38-2.3.03-5.96.04-11.91,0-17.87-.01-1.77.74-2.48,2.51-2.46,6.06.05,12.11-.05,18.16.12.72.02,1.95,1.28,2.01,2.03.23,3.06.1,6.15.1,9.23Zm-7.73,4v-6.7h-6.51v6.7h6.51Z"/>
  <path class="cls-1" d="m22.4,74.16c7.23,0,13.98-.05,20.73.08.58.01,1.63,1.17,1.64,1.81.13,6.17.14,12.34,0,18.5-.02.67-1.2,1.85-1.87,1.87-6.17.15-12.34.14-18.5.02-.67-.01-1.89-.98-1.9-1.53-.13-6.75-.09-13.5-.09-20.75Zm7.72,15.25h6.7v-6.59h-6.7v6.59Z"/>
  <path class="cls-1" d="m44.85,33.9c0,2.88-.06,5.77.02,8.65.05,1.75-.52,2.51-2.38,2.49-5.86-.08-11.73-.07-17.6,0-1.75.02-2.57-.54-2.56-2.37.04-5.96.04-11.93,0-17.9-.01-1.62.64-2.36,2.29-2.35,5.97.03,11.93.04,17.9-.01,1.83-.01,2.41.79,2.36,2.55-.1,2.98-.03,5.96-.03,8.95Zm-7.97-3.54h-6.71v6.67h6.71v-6.67Z"/>
  <path d="m89.08,37.03h-6.51v-6.7h6.51v6.7Z"/>
  <path d="m30.12,89.41v-6.59h6.7v6.59h-6.7Z"/>
  <path d="m36.88,30.36v6.67h-6.71v-6.67h6.71Z"/>
</svg>