<svg width="28" height="24" viewBox="0 0 28 24" fill="none" xmlns="http://www.w3.org/2000/svg">
<path d="M20.0388 18.5931C20.3701 18.8835 20.4052 19.3898 20.0923 19.7C18.511 21.268 16.5 22.3427 14.305 22.7821C11.8486 23.2739 9.29849 22.9425 7.04929 21.8392C4.80009 20.7359 2.97709 18.9223 1.86228 16.6788C0.747463 14.4353 0.402959 11.887 0.882054 9.42799C1.36115 6.96901 2.63714 4.73641 4.51267 3.07553C6.38819 1.41466 8.75873 0.418053 11.2576 0.23988C13.7565 0.0617064 16.2444 0.711892 18.3366 2.08986C20.2061 3.32116 21.6665 5.07225 22.5435 7.11921C22.717 7.52419 22.4945 7.98029 22.0783 8.12505V8.12505C21.6622 8.26981 21.2105 8.04816 21.0324 7.64518C20.2738 5.92879 19.0355 4.46065 17.459 3.42232C15.6597 2.23727 13.5201 1.67811 11.3711 1.83134C9.22204 1.98456 7.18338 2.84164 5.57043 4.27C3.95748 5.69835 2.86012 7.61839 2.4481 9.73311C2.03608 11.8478 2.33235 14.0394 3.29109 15.9688C4.24983 17.8982 5.81761 19.4579 7.75193 20.4068C9.68624 21.3556 11.8793 21.6406 13.9919 21.2177C15.8429 20.8471 17.5417 19.9513 18.8892 18.6452C19.2056 18.3386 19.7075 18.3027 20.0388 18.5931V18.5931Z" fill="#5C6D84"/>
<path d="M25.377 6.90847L17.8995 7.91731C17.3168 7.99593 17.1022 8.7273 17.55 9.10836L21.8939 12.8048C22.2038 13.0685 22.6744 13.0026 22.8999 12.6639L26.0335 7.95865C26.3576 7.47193 25.9565 6.83028 25.377 6.90847Z" fill="#5C6D84"/>
</svg>
