<svg width="256" height="256" viewBox="0 0 256 256" fill="none" xmlns="http://www.w3.org/2000/svg">
    <path d="M6.72021 28V118.07L117.871 119.029" stroke="#346187" stroke-width="10" />
    <path d="M18.5937 98.3602L43.2198 49.108L73.1229 98.3602L103.026 57.903" stroke="#346187"
        stroke-width="10" />
    <path d="M6.72021 136.971V227.042L117.871 228" stroke="#346187" stroke-width="10" />
    <path
        d="M18.5937 207.332L43.2198 158.079L73.1229 207.332L103.026 166.874M43.2198 193.636L60.4795 166.874L92.4444 193.636"
        stroke="#346187" stroke-width="10" />
    <path d="M138.939 28V118.07L250.09 119.029" stroke="#346187" stroke-width="10" />
    <path d="M150.813 98.3602L175.439 49.108L205.342 98.3602L213.04 71.5884L175.439 98.3602"
        stroke="#346187" stroke-width="10" />
    <path d="M138.939 136.971V227.042L250.09 228" stroke="#346187" stroke-width="10" />
    <path d="M150.813 207.332L175.439 158.079L205.342 207.332L235.245 166.874" stroke="#346187"
        stroke-width="10" />
</svg>
