<svg width="22" height="22" viewBox="0 0 22 22" fill="none" xmlns="http://www.w3.org/2000/svg">
<path d="M7.98818 8.70139C7.38865 9.27853 6.97424 10.0209 6.79768 10.8341C6.62112 11.6474 6.69036 12.4948 6.99659 13.2685C7.30282 14.0423 7.83224 14.7076 8.5175 15.1798C9.20277 15.6519 10.013 15.9097 10.8451 15.9202C11.6772 15.9308 12.4936 15.6937 13.1907 15.239C13.8877 14.7844 14.4338 14.1328 14.7596 13.367C15.0853 12.6013 15.176 11.7559 15.0202 10.9385C14.8643 10.121 14.4689 9.36835 13.8842 8.77619C13.1078 7.99259 12.0545 7.54558 10.9515 7.53159C9.84851 7.5176 8.7842 7.93774 7.98818 8.70139V8.70139ZM13.1215 13.9506C12.5115 14.5017 11.7187 14.8068 10.8966 14.8068C10.0745 14.8068 9.28168 14.5017 8.67165 13.9506C8.30022 13.5971 8.02203 13.1572 7.86196 12.67C7.7019 12.1829 7.66493 11.6637 7.75432 11.1588C7.8437 10.6539 8.05666 10.179 8.37423 9.77641C8.6918 9.37383 9.1041 9.05612 9.57431 8.85164C10.0445 8.64715 10.558 8.56224 11.069 8.60448C11.5801 8.64672 12.0727 8.81481 12.5029 9.09373C12.9332 9.37266 13.2877 9.75375 13.5349 10.203C13.782 10.6523 13.9141 11.1557 13.9194 11.6685C13.9722 12.0848 13.9275 12.5077 13.7888 12.9038C13.6501 13.2998 13.4211 13.6582 13.12 13.9506H13.1215Z" fill="#5C6D84"/>
<path d="M21.2604 13.2559V10.2096L18.1217 9.53053C18.0012 9.08932 17.8366 8.66134 17.6304 8.25306L19.3992 5.50159L17.2373 3.33973L14.4859 5.10852C14.0849 4.88621 13.655 4.72084 13.2084 4.61719L12.5234 1.47266H9.47717L8.79227 4.61719C8.35106 4.73775 7.92308 4.90235 7.5148 5.10852L4.76332 3.33973L2.60146 5.50159L4.37025 8.25306C4.14795 8.654 3.9826 9.08396 3.87893 9.53053L0.734375 10.2155V13.2559L3.87893 13.9408C3.99941 14.382 4.164 14.81 4.37025 15.2183L2.60146 17.9697L4.76332 20.1316L7.5148 18.3628C7.91574 18.5851 8.3457 18.7505 8.79227 18.8541L9.47717 21.9987H12.5234L13.2084 18.8541C13.6496 18.7336 14.0776 18.569 14.4859 18.3628L17.2373 20.1316L19.3992 17.9697L17.6304 15.2183C17.8527 14.8173 18.0181 14.3874 18.1217 13.9408L21.2604 13.2559ZM18.1159 17.7805L17.0349 18.8615L14.48 17.1909L14.1866 17.3875C13.69 17.6743 13.1626 17.9041 12.6144 18.0724L12.321 18.1707L11.7344 21.2169H10.2604L9.67371 18.1707L9.3804 18.0724C8.81736 17.9466 8.28362 17.7141 7.80811 17.3875L7.5148 17.1909L4.954 18.8585L3.87306 17.7776L5.54361 15.2227L5.34707 14.9293C5.06024 14.4327 4.83045 13.9053 4.66212 13.3571L4.56383 13.0637L1.51757 12.4771V10.9972L4.56383 10.4105L4.66212 10.1172C4.78791 9.55416 5.02043 9.02045 5.34707 8.54493L5.54361 8.25159L3.87597 5.69226L4.95691 4.61133L7.51185 6.28186L7.8052 6.08532C8.30179 5.79847 8.82922 5.5687 9.37745 5.40039L9.6708 5.30212L10.2575 2.25586H11.727L12.3137 5.20386L12.607 5.30212C13.1701 5.42787 13.7038 5.66038 14.1793 5.98706L14.4726 6.18359L17.0335 4.51599L18.1144 5.59692L16.4438 8.15186L16.6404 8.44519C16.9273 8.94177 17.1571 9.46921 17.3253 10.0175L17.4236 10.3108L20.3716 10.8975V12.3729L17.3253 12.9596L17.227 13.2529C17.1012 13.816 16.8688 14.3497 16.5421 14.8252L16.3456 15.1185L18.1159 17.7805Z" fill="#5C6D84"/>
</svg>
