<svg width="256" height="256" viewBox="0 0 256 256" fill="none" xmlns="http://www.w3.org/2000/svg">
<path d="M192 85.3334C209.673 85.3334 224 71.0065 224 53.3334C224 35.6603 209.673 21.3334 192 21.3334C174.327 21.3334 160 35.6603 160 53.3334C160 71.0065 174.327 85.3334 192 85.3334Z" stroke="#346187" stroke-width="13.17" stroke-linecap="round" stroke-linejoin="round"/>
<path d="M64 160C81.6731 160 96 145.673 96 128C96 110.327 81.6731 96 64 96C46.3269 96 32 110.327 32 128C32 145.673 46.3269 160 64 160Z" stroke="#346187" stroke-width="13.17" stroke-linecap="round" stroke-linejoin="round"/>
<path d="M192 234.667C209.673 234.667 224 220.34 224 202.667C224 184.994 209.673 170.667 192 170.667C174.327 170.667 160 184.994 160 202.667C160 220.34 174.327 234.667 192 234.667Z" stroke="#346187" stroke-width="13.17" stroke-linecap="round" stroke-linejoin="round"/>
<path d="M91.6267 144.107L164.48 186.56" stroke="#346187" stroke-width="13.17" stroke-linecap="round" stroke-linejoin="round"/>
<path d="M164.373 69.4399L91.6267 111.893" stroke="#346187" stroke-width="13.17" stroke-linecap="round" stroke-linejoin="round"/>
</svg>
