<?xml version="1.0" encoding="UTF-8"?>
<svg id="Layer_1" data-name="Layer 1" xmlns="http://www.w3.org/2000/svg" viewBox="0 0 119.56 104.41">
  <path d="m37.14,22.8c.2-3.47.31-6.44.55-9.4C38.3,6.05,44.7.11,52.09.04c5.2-.05,10.4-.06,15.6,0,7.35.09,13.59,5.93,14.16,13.19.24,3.05.39,6.11.61,9.57,5.36,0,10.62-.06,15.89.02,3.28.05,6.64-.1,9.83.53,6.69,1.31,11.32,7.13,11.34,13.89.06,17.51.06,35.03,0,52.54-.03,8.02-6.37,14.54-14.43,14.56-30.19.09-60.39.09-90.58,0-7.94-.03-14.42-6.7-14.46-14.61-.07-17.41-.07-34.83,0-52.24.03-8.05,6.6-14.56,14.71-14.67,6.3-.09,12.6-.02,18.9-.02,1.08,0,2.16,0,3.49,0Zm-7.59,40.73c0,10.15.07,20.3-.05,30.45-.03,2.52.55,3.46,3.31,3.44,17.99-.12,35.99-.1,53.99-.01,2.46.01,3.28-.66,3.27-3.17-.09-20.4-.1-40.8.01-61.2.01-2.74-.94-3.28-3.47-3.27-17.89.1-35.79.1-53.69,0-2.6-.02-3.46.65-3.42,3.32.15,10.15.06,20.3.06,30.45Zm67.67-.01c0,9.15,0,18.3,0,27.45q0,6.42,6.45,6.39c5.87-.03,8.77-2.93,8.77-8.83,0-15.51-.26-31.03.1-46.54.24-10.39-2.87-12.69-12.34-12.25-2.37.11-3.05.7-3.02,3.05.12,10.24.05,20.48.05,30.73Zm-74.88.17v-27.43q0-6.47-6.38-6.44c-5.93.03-8.84,2.88-8.84,8.74-.01,15.7.27,31.41-.11,47.11-.22,9.11,2.99,12.41,12.03,11.7.1,0,.2-.01.3,0,2.35.37,3.09-.57,3.06-2.96-.13-10.24-.05-20.47-.05-30.71Zm52.46-41.08c0-3.08.25-6.14-.06-9.15-.41-3.99-3.27-6.34-7.35-6.39-5.09-.06-10.19-.06-15.29,0-3.75.05-6.85,2.54-7.27,6.21-.34,3.01-.07,6.09-.07,9.33h30.04Z"/>
</svg>