<svg width="256" height="256" viewBox="0 0 256 256" fill="none" xmlns="http://www.w3.org/2000/svg">
<path d="M207.756 130.588L207.749 130.548L207.742 130.508L198.501 81.2227L198.49 81.1662L198.478 81.1101C197.867 78.3015 196.446 75.8998 194.233 74.0667C192.009 72.2236 189.371 71.2857 186.483 71.2857H68.6596C65.772 71.2857 63.1338 72.2237 60.9094 74.0667C58.6971 75.8998 57.2755 78.3015 56.665 81.1101L56.6528 81.1662L56.6422 81.2227L47.4011 130.508L47.3937 130.548L47.387 130.588C46.773 134.272 47.6657 137.715 50.0456 140.596C52.4362 143.489 55.6662 145 59.4185 145H195.724C199.477 145 202.707 143.489 205.097 140.596C207.477 137.715 208.37 134.272 207.756 130.588ZM222.143 145.749V219.143H209.714H205.714V223.143V239.571C205.714 243.045 204.532 245.899 202.073 248.359C199.614 250.818 196.759 252 193.286 252C189.812 252 186.958 250.818 184.499 248.359C182.04 245.899 180.857 243.045 180.857 239.571V223.143V219.143H176.857H78.2857H74.2857V223.143V239.571C74.2857 243.045 73.1033 245.899 70.6442 248.359C68.1851 250.818 65.3305 252 61.8571 252C58.3838 252 55.5291 250.818 53.0701 248.359C50.611 245.899 49.4286 243.045 49.4286 239.571V223.143V219.143H45.4286H33V145.749C33 136.467 34.0355 127.223 36.1101 118.01C36.1104 118.009 36.1107 118.007 36.111 118.006L49.3294 59.7421L49.3774 59.5309L49.4022 59.3156C49.9941 54.1855 53.2009 49.2419 60.1613 44.6016C67.19 39.9159 76.5134 36.2607 88.2922 33.7635C100.083 31.2637 113.17 30 127.571 30C141.973 30 155.06 31.2637 166.851 33.7635C178.629 36.2607 187.953 39.9159 194.982 44.6016C201.942 49.2419 205.149 54.1855 205.741 59.3156L205.766 59.5392L205.817 59.7585L219.289 118.007C219.29 118.011 219.29 118.014 219.291 118.018C221.183 126.413 222.143 135.651 222.143 145.749ZM82.2857 182.071C82.2857 176.475 80.2594 171.586 76.3011 167.627C72.3428 163.669 67.4537 161.643 61.8571 161.643C56.2606 161.643 51.3715 163.669 47.4132 167.627C43.4549 171.586 41.4286 176.475 41.4286 182.071C41.4286 187.668 43.4549 192.557 47.4132 196.515C51.3715 200.474 56.2606 202.5 61.8571 202.5C67.4537 202.5 72.3428 200.474 76.3011 196.515C80.2594 192.557 82.2857 187.668 82.2857 182.071ZM213.714 182.071C213.714 176.475 211.688 171.586 207.73 167.627C203.771 163.669 198.882 161.643 193.286 161.643C187.689 161.643 182.8 163.669 178.842 167.627C174.883 171.586 172.857 176.475 172.857 182.071C172.857 187.668 174.883 192.557 178.842 196.515C182.8 200.474 187.689 202.5 193.286 202.5C198.882 202.5 203.771 200.474 207.73 196.515C211.688 192.557 213.714 187.668 213.714 182.071Z" stroke="#346187" stroke-width="8"/>
</svg>
