<svg width="15" height="15" viewBox="0 0 15 15" fill="none" xmlns="http://www.w3.org/2000/svg">
<path d="M14.3159 11.6934L13.5294 11.8054C14.4713 10.4174 14.9046 8.74652 14.7559 7.07552C14.6072 5.4048 13.8857 3.8366 12.7135 2.63665C11.5414 1.4367 9.99057 0.678779 8.32353 0.491034C6.65663 0.303299 4.97619 0.697312 3.56641 1.60647C3.38635 1.72519 3.33555 1.9669 3.45263 2.14805C3.56959 2.3292 3.81076 2.38241 3.99311 2.2671C5.25042 1.46011 6.74767 1.11161 8.23227 1.2807C9.71671 1.44978 11.0973 2.12589 12.1411 3.19501C13.1849 4.26412 13.8274 5.66056 13.9607 7.14879C14.094 8.63685 13.7097 10.1254 12.8726 11.3629L12.7527 10.5155C12.7223 10.2983 12.5216 10.1469 12.3044 10.1773C12.0872 10.2077 11.9358 10.4085 11.9662 10.6256L12.2159 12.3952C12.2436 12.5906 12.4118 12.7353 12.6092 12.7334H12.6643L14.4201 12.4856H14.42C14.6373 12.4558 14.7892 12.2555 14.7593 12.0384C14.7293 11.8211 14.5291 11.6693 14.312 11.6991L14.3159 11.6934Z" fill="black"/>
<path d="M11.0083 13.1829C9.75096 13.9922 8.25281 14.3423 6.76714 14.1743C5.28139 14.0062 3.89928 13.3301 2.85466 12.2604C1.80989 11.1908 1.16669 9.79313 1.03372 8.30386C0.900841 6.81459 1.2863 5.32504 2.12511 4.08717L2.24503 4.93467C2.27268 5.13008 2.44089 5.27468 2.63827 5.27283H2.69533H2.69522C2.91027 5.24232 3.05992 5.0434 3.02953 4.82846L2.7798 3.06479C2.74941 2.84974 2.55048 2.70009 2.33544 2.73048L0.573739 2.97823C0.356489 3.00808 0.204624 3.20843 0.234595 3.42558C0.264439 3.64272 0.464681 3.79458 0.681824 3.76472L1.46831 3.65269C0.531072 5.0409 0.10151 6.70988 0.25215 8.37807C0.402909 10.0463 1.12464 11.6114 2.29561 12.8091C3.46658 14.0068 5.01486 14.7638 6.67943 14.9523C8.3438 15.1407 10.0223 14.749 11.4312 13.8433C11.6113 13.7246 11.6621 13.4829 11.545 13.3018C11.428 13.1206 11.1869 13.0674 11.0045 13.1827L11.0083 13.1829Z" fill="black"/>
<path d="M7.5 10.25C8.88071 10.25 10 9.13071 10 7.75C10 6.36929 8.88071 5.25 7.5 5.25C6.11929 5.25 5 6.36929 5 7.75C5 9.13071 6.11929 10.25 7.5 10.25Z" stroke="black" stroke-width="0.6" stroke-linecap="round" stroke-linejoin="round"/>
<path d="M8.25 7L6.75 8.5" stroke="black" stroke-width="0.6" stroke-linecap="round" stroke-linejoin="round"/>
<path d="M6.75 7L8.25 8.5" stroke="black" stroke-width="0.6" stroke-linecap="round" stroke-linejoin="round"/>
</svg>
