<svg width="15" height="8" viewBox="0 0 15 8" fill="none" xmlns="http://www.w3.org/2000/svg">
    <g clip-path="url(#clip0_526_2)">
        <path
            d="M13.8562 5.64489C13.9793 5.74494 14.0785 5.87118 14.1467 6.01441C14.2148 6.15764 14.2502 6.31427 14.2502 6.47289C14.2502 6.63152 14.2148 6.78814 14.1467 6.93138C14.0785 7.07461 13.9793 7.20084 13.8562 7.30089C13.5908 7.52048 13.2571 7.64062 12.9127 7.64062C12.5682 7.64062 12.2346 7.52048 11.9692 7.30089L7.25018 3.16089L2.52318 7.29989C2.25779 7.51948 1.92413 7.63963 1.57967 7.63963C1.23522 7.63963 0.90156 7.51948 0.636177 7.29989C0.514979 7.19862 0.417489 7.07198 0.350594 6.92891C0.283698 6.78584 0.249023 6.62983 0.249023 6.47189C0.249023 6.31396 0.283698 6.15794 0.350594 6.01487C0.417489 5.8718 0.514979 5.74516 0.636177 5.64389L6.30618 0.668892C6.57156 0.449304 6.90522 0.329159 7.24967 0.329159C7.59412 0.329159 7.92779 0.449304 8.19318 0.668892L13.8562 5.64489Z"
            fill="black" fill-opacity="0.5" />
    </g>
    <defs>
        <clipPath id="clip0_526_2">
            <rect width="14.5" height="7.971" fill="white" transform="matrix(1 0 0 -1 0 7.9707)" />
        </clipPath>
    </defs>
</svg>
