<svg xmlns="http://www.w3.org/2000/svg" width="168.991" height="153.7" viewBox="0 0 168.991 153.7">
  <g id="current_Emp._head_count" data-name="current Emp. head count" transform="translate(-84.305 -345.3)">
    <g id="Group_1918" data-name="Group 1918" transform="translate(-55.896 328.4)">
      <g id="Group_1625" data-name="Group 1625" transform="translate(163.288 36.362)">
        <g id="Group_1624" data-name="Group 1624">
          <g id="Group_1623" data-name="Group 1623">
            <path id="Path_6163" data-name="Path 6163" d="M239.505,171.31a61.105,61.105,0,1,1,61.105-61.105A61.172,61.172,0,0,1,239.505,171.31Zm0-110.545a49.44,49.44,0,1,0,49.44,49.44A49.5,49.5,0,0,0,239.505,60.765Z" transform="translate(-178.4 -49.1)" fill="#e9e7e5"/>
          </g>
        </g>
      </g>
      <g id="Group_1628" data-name="Group 1628" transform="translate(151.321 24.455)">
        <g id="Group_1627" data-name="Group 1627" transform="translate(0 0)">
          <g id="Group_1626" data-name="Group 1626">
            <path id="Path_6164" data-name="Path 6164" d="M231.672,175.545a73.072,73.072,0,0,1,0-146.145v1.269a71.773,71.773,0,1,0,34.511,134.721l.6,1.148A73.316,73.316,0,0,1,231.672,175.545Z" transform="translate(-158.6 -29.4)" fill="#e9e7e5"/>
          </g>
        </g>
      </g>
      <g id="Group_1631" data-name="Group 1631" transform="translate(247.119 28.142)">
        <g id="Group_1630" data-name="Group 1630">
          <g id="Group_1629" data-name="Group 1629">
            <path id="Path_6165" data-name="Path 6165" d="M358.985,138.974l-1.148-.6A71.9,71.9,0,0,0,317.1,36.709l.423-1.209a73.106,73.106,0,0,1,41.462,103.474Z" transform="translate(-317.1 -35.5)" fill="#e9e7e5"/>
          </g>
        </g>
      </g>
      <g id="Group_1634" data-name="Group 1634" transform="translate(158.574 24.395)">
        <g id="Group_1633" data-name="Group 1633" transform="translate(0 0)">
          <g id="Group_1632" data-name="Group 1632">
            <path id="Path_6166" data-name="Path 6166" d="M177.248,42.6a6.648,6.648,0,1,1,6.648-6.648A6.629,6.629,0,0,1,177.248,42.6Zm0-11.967a5.319,5.319,0,1,0,5.319,5.319A5.327,5.327,0,0,0,177.248,30.63Z" transform="translate(-170.6 -29.3)" fill="#e9e7e5"/>
          </g>
        </g>
      </g>
      <g id="Group_1637" data-name="Group 1637" transform="translate(160.071 25.888)">
        <g id="Group_1636" data-name="Group 1636" transform="translate(0 0)">
          <g id="Group_1635" data-name="Group 1635">
            <circle id="Ellipse_1583" data-name="Ellipse 1583" cx="3.929" cy="3.929" r="3.929" transform="translate(0 3.057) rotate(-22.898)" fill="#e9e7e5"/>
          </g>
        </g>
      </g>
      <g id="Group_1640" data-name="Group 1640" transform="translate(292.57 141.588)">
        <g id="Group_1639" data-name="Group 1639" transform="translate(0)">
          <g id="Group_1638" data-name="Group 1638">
            <path id="Path_6167" data-name="Path 6167" d="M396.531,231.662a4.231,4.231,0,1,1,4.231-4.231A4.2,4.2,0,0,1,396.531,231.662Zm0-7.8a3.566,3.566,0,1,0,3.566,3.566A3.5,3.5,0,0,0,396.531,223.865Z" transform="translate(-392.3 -223.2)" fill="#e9e7e5"/>
          </g>
        </g>
      </g>
      <g id="Group_1643" data-name="Group 1643" transform="translate(294.323 143.281)">
        <g id="Group_1642" data-name="Group 1642">
          <g id="Group_1641" data-name="Group 1641">
            <path id="Path_6168" data-name="Path 6168" d="M400.277,228.538A2.538,2.538,0,1,1,397.738,226,2.554,2.554,0,0,1,400.277,228.538Z" transform="translate(-395.2 -226)" fill="#e9e7e5"/>
          </g>
        </g>
      </g>
      <g id="Group_1646" data-name="Group 1646" transform="translate(255.339 45.488)">
        <g id="Group_1645" data-name="Group 1645">
          <g id="Group_1644" data-name="Group 1644">
            <path id="Path_6169" data-name="Path 6169" d="M334.326,66.013a1.813,1.813,0,1,1-1.813-1.813A1.781,1.781,0,0,1,334.326,66.013Z" transform="translate(-330.7 -64.2)" fill="#e9e7e5"/>
          </g>
        </g>
      </g>
      <g id="Group_1649" data-name="Group 1649" transform="translate(184.503 16.9)">
        <g id="Group_1648" data-name="Group 1648">
          <g id="Group_1647" data-name="Group 1647">
            <path id="Path_6170" data-name="Path 6170" d="M213.8,21.131a.286.286,0,0,1-.3-.3V17.2a.3.3,0,0,1,.6,0v3.626A.286.286,0,0,1,213.8,21.131Z" transform="translate(-213.5 -16.9)" fill="#e9e7e5"/>
          </g>
        </g>
      </g>
      <g id="Group_1652" data-name="Group 1652" transform="translate(184.503 23.548)">
        <g id="Group_1651" data-name="Group 1651">
          <g id="Group_1650" data-name="Group 1650">
            <path id="Path_6171" data-name="Path 6171" d="M213.8,32.131a.286.286,0,0,1-.3-.3V28.2a.3.3,0,0,1,.6,0v3.626A.324.324,0,0,1,213.8,32.131Z" transform="translate(-213.5 -27.9)" fill="#e9e7e5"/>
          </g>
        </g>
      </g>
      <g id="Group_1655" data-name="Group 1655" transform="translate(186.135 21.917)">
        <g id="Group_1654" data-name="Group 1654" transform="translate(0 0)">
          <g id="Group_1653" data-name="Group 1653">
            <path id="Path_6172" data-name="Path 6172" d="M220.129,25.8H216.5a.3.3,0,0,1,0-.6h3.626a.3.3,0,0,1,0,.6Z" transform="translate(-216.2 -25.2)" fill="#e9e7e5"/>
          </g>
        </g>
      </g>
      <g id="Group_1658" data-name="Group 1658" transform="translate(179.305 21.917)">
        <g id="Group_1657" data-name="Group 1657" transform="translate(0 0)">
          <g id="Group_1656" data-name="Group 1656">
            <path id="Path_6173" data-name="Path 6173" d="M208.829,25.8H205.2a.3.3,0,0,1,0-.6h3.626a.3.3,0,1,1,0,.6Z" transform="translate(-204.9 -25.2)" fill="#e9e7e5"/>
          </g>
        </g>
      </g>
      <g id="Group_1661" data-name="Group 1661" transform="translate(185.742 17.958)">
        <g id="Group_1660" data-name="Group 1660">
          <g id="Group_1659" data-name="Group 1659">
            <path id="Path_6174" data-name="Path 6174" d="M215.882,21.944a.458.458,0,0,1-.242-.121.366.366,0,0,1,0-.484l2.6-2.6a.342.342,0,1,1,.484.484l-2.6,2.6A.241.241,0,0,1,215.882,21.944Z" transform="translate(-215.55 -18.65)" fill="#e9e7e5"/>
          </g>
        </g>
      </g>
      <g id="Group_1664" data-name="Group 1664" transform="translate(180.604 23.095)">
        <g id="Group_1663" data-name="Group 1663" transform="translate(0 0)">
          <g id="Group_1662" data-name="Group 1662">
            <path id="Path_6175" data-name="Path 6175" d="M207.382,30.444a.458.458,0,0,1-.242-.121.366.366,0,0,1,0-.484l2.6-2.6a.342.342,0,1,1,.484.484l-2.6,2.6A.314.314,0,0,1,207.382,30.444Z" transform="translate(-207.05 -27.15)" fill="#e9e7e5"/>
          </g>
        </g>
      </g>
      <g id="Group_1667" data-name="Group 1667" transform="translate(185.742 23.095)">
        <g id="Group_1666" data-name="Group 1666" transform="translate(0 0)">
          <g id="Group_1665" data-name="Group 1665">
            <path id="Path_6176" data-name="Path 6176" d="M218.481,30.444a.458.458,0,0,1-.242-.121l-2.6-2.6a.342.342,0,1,1,.484-.484l2.6,2.6a.366.366,0,0,1,0,.484C218.6,30.384,218.542,30.444,218.481,30.444Z" transform="translate(-215.55 -27.15)" fill="#e9e7e5"/>
          </g>
        </g>
      </g>
      <g id="Group_1670" data-name="Group 1670" transform="translate(180.604 17.958)">
        <g id="Group_1669" data-name="Group 1669" transform="translate(0)">
          <g id="Group_1668" data-name="Group 1668">
            <path id="Path_6177" data-name="Path 6177" d="M209.981,21.944a.458.458,0,0,1-.242-.121l-2.6-2.6a.342.342,0,0,1,.484-.484l2.6,2.6a.366.366,0,0,1,0,.484C210.163,21.944,210.1,21.944,209.981,21.944Z" transform="translate(-207.05 -18.65)" fill="#e9e7e5"/>
          </g>
        </g>
      </g>
      <g id="Group_1673" data-name="Group 1673" transform="translate(301.666 129.047)">
        <g id="Group_1672" data-name="Group 1672" transform="translate(0)">
          <g id="Group_1671" data-name="Group 1671">
            <path id="Path_6178" data-name="Path 6178" d="M407.682,205.744a.458.458,0,0,1-.242-.121.365.365,0,0,1,0-.484l2.6-2.6a.342.342,0,0,1,.483.484l-2.6,2.6A.458.458,0,0,1,407.682,205.744Z" transform="translate(-407.35 -202.45)" fill="#e9e7e5"/>
          </g>
        </g>
      </g>
      <g id="Group_1676" data-name="Group 1676" transform="translate(296.589 134.124)">
        <g id="Group_1675" data-name="Group 1675" transform="translate(0 0)">
          <g id="Group_1674" data-name="Group 1674">
            <path id="Path_6179" data-name="Path 6179" d="M399.282,214.144a.458.458,0,0,1-.242-.121.366.366,0,0,1,0-.484l2.6-2.6a.342.342,0,0,1,.484.484l-2.6,2.6C399.4,214.144,399.343,214.144,399.282,214.144Z" transform="translate(-398.95 -210.85)" fill="#e9e7e5"/>
          </g>
        </g>
      </g>
      <g id="Group_1679" data-name="Group 1679" transform="translate(301.666 134.124)">
        <g id="Group_1678" data-name="Group 1678" transform="translate(0 0)">
          <g id="Group_1677" data-name="Group 1677">
            <path id="Path_6180" data-name="Path 6180" d="M410.281,214.144a.458.458,0,0,1-.242-.121l-2.6-2.6a.342.342,0,0,1,.484-.484l2.6,2.6a.365.365,0,0,1,0,.484C410.4,214.144,410.342,214.144,410.281,214.144Z" transform="translate(-407.35 -210.85)" fill="#e9e7e5"/>
          </g>
        </g>
      </g>
      <g id="Group_1682" data-name="Group 1682" transform="translate(296.529 129.047)">
        <g id="Group_1681" data-name="Group 1681" transform="translate(0)">
          <g id="Group_1680" data-name="Group 1680">
            <path id="Path_6181" data-name="Path 6181" d="M401.781,205.744a.458.458,0,0,1-.242-.121l-2.6-2.6a.342.342,0,1,1,.484-.484l2.6,2.6a.365.365,0,0,1,0,.484A.314.314,0,0,1,401.781,205.744Z" transform="translate(-398.85 -202.45)" fill="#e9e7e5"/>
          </g>
        </g>
      </g>
      <g id="Group_1685" data-name="Group 1685" transform="translate(301.092 44.34)">
        <g id="Group_1684" data-name="Group 1684">
          <g id="Group_1683" data-name="Group 1683">
            <path id="Path_6182" data-name="Path 6182" d="M406.823,68.223a.413.413,0,0,1-.423-.423V62.723a.423.423,0,1,1,.846,0V67.74A.431.431,0,0,1,406.823,68.223Z" transform="translate(-406.4 -62.3)" fill="#e9e7e5"/>
          </g>
        </g>
      </g>
      <g id="Group_1688" data-name="Group 1688" transform="translate(301.092 53.527)">
        <g id="Group_1687" data-name="Group 1687">
          <g id="Group_1686" data-name="Group 1686">
            <path id="Path_6183" data-name="Path 6183" d="M406.823,83.363a.413.413,0,0,1-.423-.423V77.923a.423.423,0,1,1,.846,0V82.94A.413.413,0,0,1,406.823,83.363Z" transform="translate(-406.4 -77.5)" fill="#e9e7e5"/>
          </g>
        </g>
      </g>
      <g id="Group_1691" data-name="Group 1691" transform="translate(303.328 51.291)">
        <g id="Group_1690" data-name="Group 1690" transform="translate(0)">
          <g id="Group_1689" data-name="Group 1689">
            <path id="Path_6184" data-name="Path 6184" d="M415.54,74.646h-5.017a.423.423,0,1,1,0-.846h5.017a.423.423,0,0,1,0,.846Z" transform="translate(-410.1 -73.8)" fill="#e9e7e5"/>
          </g>
        </g>
      </g>
      <g id="Group_1694" data-name="Group 1694" transform="translate(293.839 51.291)">
        <g id="Group_1693" data-name="Group 1693" transform="translate(0)">
          <g id="Group_1692" data-name="Group 1692">
            <path id="Path_6185" data-name="Path 6185" d="M399.84,74.646h-5.017a.423.423,0,0,1,0-.846h5.017a.413.413,0,0,1,.423.423C400.323,74.465,400.081,74.646,399.84,74.646Z" transform="translate(-394.4 -73.8)" fill="#e9e7e5"/>
          </g>
        </g>
      </g>
      <g id="Group_1697" data-name="Group 1697" transform="translate(302.83 46.017)">
        <g id="Group_1696" data-name="Group 1696" transform="translate(0)">
          <g id="Group_1695" data-name="Group 1695">
            <path id="Path_6186" data-name="Path 6186" d="M409.713,69.5a.462.462,0,0,1-.3-.121.4.4,0,0,1,0-.6l3.566-3.566a.427.427,0,0,1,.6.6l-3.566,3.566A.462.462,0,0,1,409.713,69.5Z" transform="translate(-409.275 -65.075)" fill="#e9e7e5"/>
          </g>
        </g>
      </g>
      <g id="Group_1700" data-name="Group 1700" transform="translate(295.758 53.028)">
        <g id="Group_1699" data-name="Group 1699" transform="translate(0)">
          <g id="Group_1698" data-name="Group 1698">
            <path id="Path_6187" data-name="Path 6187" d="M398.013,81.1a.462.462,0,0,1-.3-.121.4.4,0,0,1,0-.6l3.566-3.566a.427.427,0,0,1,.6.6l-3.566,3.566C398.255,81.1,398.134,81.1,398.013,81.1Z" transform="translate(-397.575 -76.675)" fill="#e9e7e5"/>
          </g>
        </g>
      </g>
      <g id="Group_1703" data-name="Group 1703" transform="translate(302.83 53.028)">
        <g id="Group_1702" data-name="Group 1702" transform="translate(0)">
          <g id="Group_1701" data-name="Group 1701">
            <path id="Path_6188" data-name="Path 6188" d="M413.279,81.1a.462.462,0,0,1-.3-.121l-3.566-3.566a.427.427,0,0,1,.6-.6l3.566,3.566a.4.4,0,0,1,0,.6C413.521,81.1,413.4,81.1,413.279,81.1Z" transform="translate(-409.275 -76.675)" fill="#e9e7e5"/>
          </g>
        </g>
      </g>
      <g id="Group_1706" data-name="Group 1706" transform="translate(295.758 46.017)">
        <g id="Group_1705" data-name="Group 1705" transform="translate(0)">
          <g id="Group_1704" data-name="Group 1704">
            <path id="Path_6189" data-name="Path 6189" d="M401.579,69.5a.462.462,0,0,1-.3-.121l-3.566-3.566a.427.427,0,1,1,.6-.6l3.566,3.566a.4.4,0,0,1,0,.6A.462.462,0,0,1,401.579,69.5Z" transform="translate(-397.575 -65.075)" fill="#e9e7e5"/>
          </g>
        </g>
      </g>
      <g id="Group_1709" data-name="Group 1709" transform="translate(158.755 157.122)">
        <g id="Group_1708" data-name="Group 1708" transform="translate(0)">
          <g id="Group_1707" data-name="Group 1707">
            <path id="Path_6190" data-name="Path 6190" d="M171.384,255.125a.477.477,0,0,1-.484-.484v-5.258a.484.484,0,0,1,.967,0v5.258C171.807,254.884,171.625,255.125,171.384,255.125Z" transform="translate(-170.9 -248.9)" fill="#e9e7e5"/>
          </g>
        </g>
      </g>
      <g id="Group_1712" data-name="Group 1712" transform="translate(156.096 159.721)">
        <g id="Group_1711" data-name="Group 1711">
          <g id="Group_1710" data-name="Group 1710">
            <path id="Path_6191" data-name="Path 6191" d="M172.242,254.167h-5.258a.477.477,0,0,1-.484-.484.445.445,0,0,1,.484-.484h5.258a.484.484,0,1,1,0,.967Z" transform="translate(-166.5 -253.2)" fill="#e9e7e5"/>
          </g>
        </g>
      </g>
      <g id="Group_1715" data-name="Group 1715" transform="translate(239.02 148.237)">
        <g id="Group_1714" data-name="Group 1714">
          <g id="Group_1713" data-name="Group 1713">
            <path id="Path_6192" data-name="Path 6192" d="M304.244,241.332a.542.542,0,0,1-.544-.544v-6.044a.544.544,0,0,1,1.088,0v6.044A.542.542,0,0,1,304.244,241.332Z" transform="translate(-303.7 -234.2)" fill="#e9e7e5"/>
          </g>
        </g>
      </g>
      <g id="Group_1718" data-name="Group 1718" transform="translate(235.998 151.259)">
        <g id="Group_1717" data-name="Group 1717">
          <g id="Group_1716" data-name="Group 1716">
            <path id="Path_6193" data-name="Path 6193" d="M305.288,240.288h-6.044a.544.544,0,0,1,0-1.088h6.044a.544.544,0,0,1,0,1.088Z" transform="translate(-298.7 -239.2)" fill="#e9e7e5"/>
          </g>
        </g>
      </g>
      <g id="Group_1721" data-name="Group 1721" transform="translate(143.222 108.104)">
        <g id="Group_1720" data-name="Group 1720">
          <g id="Group_1719" data-name="Group 1719">
            <path id="Path_6194" data-name="Path 6194" d="M145.744,174.932a.542.542,0,0,1-.544-.544v-6.044a.544.544,0,1,1,1.088,0v6.044A.542.542,0,0,1,145.744,174.932Z" transform="translate(-145.2 -167.8)" fill="#e9e7e5"/>
          </g>
        </g>
      </g>
      <g id="Group_1724" data-name="Group 1724" transform="translate(140.2 111.126)">
        <g id="Group_1723" data-name="Group 1723">
          <g id="Group_1722" data-name="Group 1722">
            <path id="Path_6195" data-name="Path 6195" d="M146.788,173.888h-6.044a.544.544,0,0,1,0-1.088h6.044a.544.544,0,0,1,0,1.088Z" transform="translate(-140.2 -172.8)" fill="#e9e7e5"/>
          </g>
        </g>
      </g>
      <g id="Group_1727" data-name="Group 1727" transform="translate(298.795 67.609)">
        <g id="Group_1726" data-name="Group 1726" transform="translate(0 0)">
          <g id="Group_1725" data-name="Group 1725">
            <path id="Path_6196" data-name="Path 6196" d="M403.084,107.025a.477.477,0,0,1-.483-.484v-5.258a.484.484,0,1,1,.967,0v5.258A.477.477,0,0,1,403.084,107.025Z" transform="translate(-402.6 -100.8)" fill="#e9e7e5"/>
          </g>
        </g>
      </g>
      <g id="Group_1730" data-name="Group 1730" transform="translate(296.197 70.208)">
        <g id="Group_1729" data-name="Group 1729" transform="translate(0 0)">
          <g id="Group_1728" data-name="Group 1728">
            <path id="Path_6197" data-name="Path 6197" d="M404.042,106.067h-5.258a.484.484,0,0,1,0-.967h5.258a.484.484,0,0,1,0,.967Z" transform="translate(-398.3 -105.1)" fill="#e9e7e5"/>
          </g>
        </g>
      </g>
      <g id="Group_1733" data-name="Group 1733" transform="translate(147.467 63.031)">
        <g id="Group_1732" data-name="Group 1732">
          <g id="Group_1731" data-name="Group 1731">
            <path id="Path_6198" data-name="Path 6198" d="M156.017,100.765a3.771,3.771,0,1,1,3.324-5.5,3.733,3.733,0,0,1,.242,2.9h0a3.812,3.812,0,0,1-1.874,2.236A3.861,3.861,0,0,1,156.017,100.765Zm0-6.89A3.153,3.153,0,0,0,153,96.111a3.2,3.2,0,0,0,2.055,3.929,3.1,3.1,0,0,0,2.418-.242,2.967,2.967,0,0,0,1.511-1.874h0a3.1,3.1,0,0,0-.242-2.418A2.967,2.967,0,0,0,156.863,94,1.921,1.921,0,0,0,156.017,93.874Z" transform="translate(-152.224 -93.224)" fill="#e9e7e5"/>
          </g>
        </g>
      </g>
      <g id="Group_1736" data-name="Group 1736" transform="translate(147.295 69.846)">
        <g id="Group_1735" data-name="Group 1735" transform="translate(0)">
          <g id="Group_1734" data-name="Group 1734">
            <path id="Path_6199" data-name="Path 6199" d="M154.877,104.742a2.526,2.526,0,0,1-.6-.242v.06l-2.3,7.374a.631.631,0,0,0,1.209.363l2.3-7.374v-.06A2.147,2.147,0,0,1,154.877,104.742Z" transform="translate(-151.938 -104.5)" fill="#e9e7e5"/>
          </g>
        </g>
      </g>
      <g id="Group_1739" data-name="Group 1739" transform="translate(151.329 65.562)">
        <g id="Group_1738" data-name="Group 1738" transform="translate(0 0)">
          <g id="Group_1737" data-name="Group 1737">
            <path id="Path_6200" data-name="Path 6200" d="M160.66,98.8a1.051,1.051,0,1,1-.665-1.33A1.061,1.061,0,0,1,160.66,98.8Z" transform="translate(-158.613 -97.413)" fill="#e9e7e5"/>
          </g>
        </g>
      </g>
      <g id="Group_1742" data-name="Group 1742" transform="translate(265.372 153.858)">
        <g id="Group_1741" data-name="Group 1741" transform="translate(0)">
          <g id="Group_1740" data-name="Group 1740">
            <path id="Path_6201" data-name="Path 6201" d="M356.729,250.995h-8.522a.93.93,0,0,1-.907-.907v-5.681a.93.93,0,0,1,.907-.907h8.522a.93.93,0,0,1,.907.907v5.681A.975.975,0,0,1,356.729,250.995Zm-8.522-6.83a.26.26,0,0,0-.242.242v5.681a.26.26,0,0,0,.242.242h8.522a.26.26,0,0,0,.242-.242v-5.681a.26.26,0,0,0-.242-.242Z" transform="translate(-347.3 -243.5)" fill="#e9e7e5"/>
          </g>
        </g>
      </g>
      <g id="Group_1745" data-name="Group 1745" transform="translate(265.916 153.918)">
        <g id="Group_1744" data-name="Group 1744">
          <g id="Group_1743" data-name="Group 1743">
            <path id="Path_6202" data-name="Path 6202" d="M352.793,247.891a.363.363,0,0,1-.242-.06l-4.231-3.687c-.121-.06-.121-.242-.121-.363a.332.332,0,0,1,.3-.181h8.522a.332.332,0,0,1,.3.181c.06.121,0,.242-.121.363l-4.231,3.687C352.975,247.891,352.914,247.891,352.793,247.891Zm-3.385-3.687,3.385,2.962,3.385-2.962Z" transform="translate(-348.2 -243.6)" fill="#e9e7e5"/>
          </g>
        </g>
      </g>
    </g>
    <g id="Group_1921" data-name="Group 1921" transform="translate(-118.538 381.943)">
      <g id="Group_1821" data-name="Group 1821" transform="translate(333.7 84.396)">
        <path id="Path_6238" data-name="Path 6238" d="M346.556,92.4,333.7,105.681l2.337,2.391,3.506-3.506,1.541-1.381-.106-1.275.9-1.062,6.534-6.534Z" transform="translate(-333.7 -92.4)" fill="#d2d2d2"/>
      </g>
      <g id="Group_1822" data-name="Group 1822" transform="translate(344.763 75.325)">
        <path id="Path_6239" data-name="Path 6239" d="M365.986,77.277a6.724,6.724,0,1,0,0,9.509A6.766,6.766,0,0,0,365.986,77.277Zm-3.453,3.559a1.465,1.465,0,1,1,2.072,0A1.546,1.546,0,0,1,362.533,80.837Z" transform="translate(-354.525 -75.325)" fill="#d2d2d2"/>
      </g>
    </g>
    <g id="Group_1920" data-name="Group 1920" transform="translate(-145.235 185.533)">
      <g id="Group_1815" data-name="Group 1815" transform="translate(348.735 174.1)">
        <path id="Path_6234" data-name="Path 6234" d="M369.824,205.045,350.863,202.7a2.4,2.4,0,0,1-2.085-2.8l3.063-19.092a2.391,2.391,0,0,1,2.672-2.02l17.267,2.15a2.45,2.45,0,0,1,2.15,2.606l-1.368,19.287A2.49,2.49,0,0,1,369.824,205.045Z" transform="translate(-348.735 -178.759)" fill="#d2d2d2"/>
      </g>
      <g id="Group_1816" data-name="Group 1816" transform="translate(353.98 165.384)">
        <path id="Path_6235" data-name="Path 6235" d="M367.416,165.46a9.456,9.456,0,1,0,8.21,10.556A9.453,9.453,0,0,0,367.416,165.46Zm-1.955,15.313a6.009,6.009,0,1,1,6.711-5.213A5.929,5.929,0,0,1,365.461,180.772Z" transform="translate(-356.784 -165.384)" fill="#d2d2d2"/>
      </g>
      <g id="Group_1818" data-name="Group 1818" transform="translate(360.232 181.215)">
        <g id="Group_1817" data-name="Group 1817">
          <path id="Path_6236" data-name="Path 6236" d="M370.628,192.039a2.13,2.13,0,1,1-1.89-2.346A2.125,2.125,0,0,1,370.628,192.039Z" transform="translate(-366.38 -189.68)" fill="#fdfdfd"/>
        </g>
      </g>
      <g id="Group_1820" data-name="Group 1820" transform="translate(360.18 184.226)">
        <g id="Group_1819" data-name="Group 1819">
          <path id="Path_6237" data-name="Path 6237" d="M369.037,194.43l.13,5.473-2.867-.326,1.5-5.278Z" transform="translate(-366.3 -194.3)" fill="#fdfdfd"/>
        </g>
      </g>
    </g>
    <g id="index" transform="translate(121.357 378.75)">
      <path id="Path_6444" data-name="Path 6444" d="M52.881,63.157l5.039-2.3A.829.829,0,0,0,58.4,60.1V55.765a11.028,11.028,0,0,1,1.174-2.524A10.273,10.273,0,0,0,61.321,48c0-.083,0-.175,0-.27a6.694,6.694,0,0,0,2.612-4.54,7.522,7.522,0,0,1,.263-.936,4.819,4.819,0,0,0,.3-2.789,2.053,2.053,0,0,0-1.171-1.556c.514-2.311,1.47-8.277-1.361-11.809-1.529-1.908-3.884-2.792-7.006-2.64-1.475-.516-11.729-3.914-17.147-.617a6.8,6.8,0,0,0-3.236,5.227c-.887,6.915-.556,8.652.238,9.742-.5.066-1.206.4-1.536,1.653a4.822,4.822,0,0,0,.3,2.79,7.522,7.522,0,0,1,.263.936,6.7,6.7,0,0,0,2.613,4.541c0,.095,0,.188,0,.27a10.279,10.279,0,0,0,1.743,5.24,11.046,11.046,0,0,1,1.174,2.524V60.1a.83.83,0,0,0,.485.754l5.04,2.3A8.008,8.008,0,0,0,45.968,67.1L43.334,82.1a.827.827,0,0,0,.814.971h9.482a.827.827,0,0,0,.814-.971L51.81,67.1A8.035,8.035,0,0,0,52.881,63.157Z" transform="translate(-2.378 -0.652)" fill="#d2d2d2"/>
      <path id="Path_6445" data-name="Path 6445" d="M35.8,65.09a.828.828,0,0,0-1.188-.559c-.056.029-5.694,2.926-11.434,5.425C14.23,73.849,14.39,85.217,14.4,85.7a.827.827,0,0,0,.827.809H39.453a.827.827,0,0,0,.827-.827.839.839,0,0,0-.069-.333Z" transform="translate(-0.879 -4.086)" fill="#d2d2d2"/>
      <path id="Path_6446" data-name="Path 6446" d="M75.11,69.955c-5.74-2.5-11.378-5.4-11.434-5.425a.834.834,0,0,0-.732-.013.825.825,0,0,0-.455.572L58.04,85.5a.827.827,0,0,0,.809,1H83.056a.827.827,0,0,0,.827-.809C83.895,85.218,84.055,73.849,75.11,69.955Z" transform="translate(-4.361 -4.086)" fill="#d2d2d2"/>
      <path id="Path_6447" data-name="Path 6447" d="M18.237,29.883a5.111,5.111,0,0,0,2,3.469c0,.073,0,.144,0,.206a7.854,7.854,0,0,0,1.331,4,8.473,8.473,0,0,1,.9,1.929V42.8a.631.631,0,0,0,.37.575l3.85,1.755a6.122,6.122,0,0,0,.816,3.014L25.487,59.612a.633.633,0,0,0,.623.742h2.72c2.7-1.3,4.645-2.294,4.782-2.364.024-.012.052-.017.075-.028l-1.723-9.816c.039-.074.08-.157.124-.248a10.171,10.171,0,0,1-2.2-4.864c-.019-.11-.109-.38-.173-.582a7.384,7.384,0,0,1-.344-4.34,5.645,5.645,0,0,1,.88-1.9c-.372-1.9-.234-4.6.35-9.145a9.559,9.559,0,0,1,4.539-7.234,13.012,13.012,0,0,1,5.352-1.7,5.755,5.755,0,0,0-.774-1.308c-1.169-1.458-2.968-2.133-5.352-2.016-1.127-.395-8.961-2.991-13.1-.472A5.2,5.2,0,0,0,18.8,18.333c-.677,5.284-.424,6.611.183,7.442-.384.051-.922.3-1.173,1.262a3.678,3.678,0,0,0,.229,2.131A6.039,6.039,0,0,1,18.237,29.883Z" transform="translate(-1.145 0)" fill="#d2d2d2"/>
      <path id="Path_6448" data-name="Path 6448" d="M22.524,62.975a.632.632,0,0,0,.579-.886L19.729,46.613a.631.631,0,0,0-.906-.428c-.042.021-4.351,2.235-8.735,4.144-6.833,2.974-6.711,11.66-6.7,12.028a.631.631,0,0,0,.632.617H22.524Z" transform="translate(0 -2.623)" fill="#d2d2d2"/>
      <path id="Path_6449" data-name="Path 6449" d="M66.069,23.722c2.96,3.692,2.8,8.956,2.21,12.543a5.643,5.643,0,0,1,.84,1.85,7.386,7.386,0,0,1-.345,4.341c-.064.2-.153.468-.173.58a10.159,10.159,0,0,1-2.207,4.875c.041.084.081.165.118.235l-1.721,9.8c.038.018.079.024.116.043.135.07,2.083,1.066,4.779,2.363h2.68a.631.631,0,0,0,.622-.742L70.976,48.145a6.131,6.131,0,0,0,.817-3.009l3.849-1.759a.631.631,0,0,0,.37-.575V39.489a8.513,8.513,0,0,1,.9-1.929,7.854,7.854,0,0,0,1.331-4c0-.063,0-.134,0-.206a5.113,5.113,0,0,0,2-3.469,5.865,5.865,0,0,1,.2-.715,3.686,3.686,0,0,0,.229-2.131,1.567,1.567,0,0,0-.9-1.189c.393-1.766,1.124-6.324-1.04-9.021-1.169-1.458-2.968-2.133-5.353-2.016-1.126-.395-8.961-2.991-13.1-.472a5.2,5.2,0,0,0-2.473,3.994c-.079.621-.145,1.184-.2,1.7C62.16,20.041,64.722,22.041,66.069,23.722Z" transform="translate(-4.328)" fill="#d2d2d2"/>
      <path id="Path_6450" data-name="Path 6450" d="M88.7,50.33c-4.386-1.909-8.692-4.123-8.735-4.144a.631.631,0,0,0-.906.428l-3.4,15.6a.632.632,0,0,0,.618.767H94.774a.631.631,0,0,0,.632-.617C95.412,61.991,95.535,53.305,88.7,50.33Z" transform="translate(-5.768 -2.623)" fill="#d2d2d2"/>
    </g>
    <g id="Group_1919" data-name="Group 1919" transform="translate(-68.753 332.449)">
      <g id="Group_1811" data-name="Group 1811" transform="translate(162.705 99.137)">
        <path id="Path_6232" data-name="Path 6232" d="M191.972,120.482,165.7,129.588a2.264,2.264,0,0,1-2.952-2.6l5.654-26.067a2.217,2.217,0,0,1,3.6-1.251l20.613,16.911A2.261,2.261,0,0,1,191.972,120.482Z" transform="translate(-162.705 -99.137)" fill="#d2d2d2"/>
      </g>
      <g id="Group_1812" data-name="Group 1812" transform="translate(170.508 105.172)">
        <path id="Path_6233" data-name="Path 6233" d="M186.005,124.859l-2.7.951-5-13.459,3.252-1.151Z" transform="translate(-178.3 -111.2)" fill="#fdfdfd"/>
      </g>
      <g id="Group_1813" data-name="Group 1813" transform="translate(175.958 120.313)">
        <rect id="Rectangle_768" data-name="Rectangle 768" width="3.002" height="3.002" transform="matrix(0.945, -0.329, 0.329, 0.945, 0, 0.986)" fill="#fdfdfd"/>
      </g>
    </g>
  </g>
</svg>
