<svg xmlns="http://www.w3.org/2000/svg" width="329.203" height="197.263" viewBox="0 0 329.203 197.263">
  <g id="Work_Request" data-name="Work Request" transform="translate(-605.225 -296.477)">
    <line id="Line_108" data-name="Line 108" x2="296" transform="translate(619.5 492.74)" fill="none" stroke="#c3d7ed" stroke-linecap="round" stroke-miterlimit="10" stroke-width="2" opacity="0.5"/>
    <g id="Group_2411" data-name="Group 2411">
      <g id="BACKGROUND" transform="translate(597.389 291)">
        <g id="Group_1208" data-name="Group 1208" transform="translate(7.837 5.477)">
          <g id="Group_1203" data-name="Group 1203">
            <g id="Group_1202" data-name="Group 1202" transform="translate(1.757)" opacity="0.68">
              <path id="Path_5045" data-name="Path 5045" d="M382.633,136.1a65.481,65.481,0,0,0-22.671-43.063C339.15,75.359,307.668,70.9,280.077,74.99c-11.557,1.712-23.017,4.743-34.851,3.789-17.259-1.392-32.462-10.932-48.175-17.926-21.39-9.52-45.909-14.644-68.65-10.5-25.783,4.7-46.923,22.438-49.445,45.978C77.813,107,89.427,125.788,85.761,135.9,82.044,146.149,54.9,177.553,55.57,201.44c.667,23.8,6.918,31.2,15.752,43.293H359.795c5.5-12.255,9.81-22.057,3.37-38.149-5.146-12.858,8.835-23.447,14.243-35.417C382.223,160.515,383.807,147.7,382.633,136.1Z" transform="translate(-55.558 -48.903)" fill="#f6f6f6" opacity="0.47"/>
            </g>
            <path id="Path_5046" data-name="Path 5046" d="M53.168,217.33a10.158,10.158,0,0,1,4.464-13.7c5.037-2.557,14.7-2.347,17.276,2.662s-5.181,9.287-8.349,13.946C62.141,226.735,55.74,222.339,53.168,217.33Z" transform="translate(-52.046 -125.386)" fill="#f6f6f6" opacity="0.41"/>
            <path id="Path_5047" data-name="Path 5047" d="M694.4,333.025a6.121,6.121,0,0,1,1.259,8.6c-2.04,2.72-7.326,5.17-10.061,3.142s.313-6.4.778-9.759C687.027,330.317,691.669,331,694.4,333.025Z" transform="translate(-367.952 -190.05)" fill="#f6f6f6" opacity="0.41"/>
            <path id="Path_5048" data-name="Path 5048" d="M423.692,60.912a8.664,8.664,0,0,1,11.947-2.61c3.94,2.586,7.716,9.744,5.058,13.771s-8.974.193-13.707-.126C420.387,71.5,421.034,64.939,423.692,60.912Z" transform="translate(-236.739 -52.911)" fill="#f6f6f6" opacity="0.41"/>
          </g>
          <g id="Group_1204" data-name="Group 1204" transform="translate(29.337 26.334)" opacity="0.43">
            <path id="Path_5049" data-name="Path 5049" d="M378.336,257c2.811-13.9-1.7-25.754-2.819-39.383-1.064-12.9,3.544-23.754,6.1-36.042,2.275-10.937,1.517-23.324-1.339-34.073-3.9-14.675-12.88-28.264-25.817-36.548-20.16-12.908-47.046-11.388-69.314-2.509-9.328,3.719-18.361,8.667-28.35,9.919-14.569,1.825-28.75-4.42-42.941-8.166-19.319-5.1-40.527-5.478-58.755,2.571-20.667,9.127-35.362,29.73-33.645,52.422.778,10.282,4.758,20.429,3.349,30.644-1.429,10.36-7.617,19.027-10.893,28.784-4.471,13.318-4.879,32.89,2.31,46.4H373.5A56.065,56.065,0,0,0,378.336,257Z" transform="translate(-110.664 -101.52)" fill="#f6f6f6"/>
          </g>
          <g id="Group_1207" data-name="Group 1207" transform="translate(81.602 92.062)">
            <g id="Group_1206" data-name="Group 1206">
              <g id="Group_1205" data-name="Group 1205" opacity="0.47">
                <path id="Path_5050" data-name="Path 5050" d="M382.659,279.051a35.09,35.09,0,0,0-11.615-22.819c-10.662-9.366-26.791-11.727-40.927-9.561-5.921.907-11.793,2.513-17.855,2.008-8.842-.737-16.631-5.793-24.681-9.5-10.959-5.044-23.52-7.76-35.17-5.564-13.209,2.489-24.04,11.89-25.332,24.363-.586,5.652,5.365,15.609,3.486,20.965-1.9,5.433-15.81,22.073-15.468,34.73.341,12.61,3.544,16.532,8.07,22.94h147.79c2.818-6.494,5.026-11.687,1.727-20.215-2.636-6.813,4.526-12.425,7.3-18.767A38.378,38.378,0,0,0,382.659,279.051Z" transform="translate(-215.092 -232.848)" fill="#f6f6f6"/>
              </g>
            </g>
          </g>
        </g>
      </g>
    </g>
    <g id="Group_2410" data-name="Group 2410" transform="translate(692.374 349.541)" opacity="0.3">
      <path id="Path_6645" data-name="Path 6645" d="M399.063,237.164a1.088,1.088,0,0,1-1.04-.775c-1.707-5.546-2.881-6.733-8.364-8.461a1.107,1.107,0,0,1,0-2.106c5.484-1.727,6.657-2.913,8.364-8.461a1.086,1.086,0,0,1,2.081,0c1.708,5.548,2.879,6.734,8.362,8.461a1.107,1.107,0,0,1,0,2.106c-5.484,1.728-6.654,2.914-8.362,8.461A1.091,1.091,0,0,1,399.063,237.164Z" transform="translate(-254.373 -151.705)" fill="#c3d7ed"/>
      <path id="Path_6646" data-name="Path 6646" d="M435.166,123.583a1.2,1.2,0,0,1-1.151-.858c-1.891-6.142-3.19-7.457-9.263-9.37a1.226,1.226,0,0,1,0-2.332c6.073-1.912,7.372-3.226,9.263-9.37a1.2,1.2,0,0,1,2.3,0c1.893,6.144,3.189,7.458,9.262,9.37a1.226,1.226,0,0,1,0,2.332c-6.072,1.913-7.37,3.228-9.262,9.37A1.207,1.207,0,0,1,435.166,123.583Z" transform="translate(-275.469 -81.933)" fill="#c3d7ed"/>
      <path id="Path_6647" data-name="Path 6647" d="M58.839,70.363a.9.9,0,0,1-.861-.641c-1.413-4.59-2.383-5.572-6.922-7a.916.916,0,0,1,0-1.742c4.538-1.429,5.509-2.41,6.922-7a.9.9,0,0,1,1.722,0c1.414,4.592,2.383,5.573,6.92,7a.916.916,0,0,1,0,1.742c-4.538,1.43-5.506,2.412-6.92,7A.9.9,0,0,1,58.839,70.363Z" transform="translate(-50.423 -53.336)" fill="#c3d7ed"/>
    </g>
    <g id="geek" transform="translate(699.049 350.823)">
      <path id="Path_7140" data-name="Path 7140" d="M178.6,308.627l-77.245.116V280.1c0-8.3,4.9-15.6,11.994-17.872l33.077-10.6,33.077,10.6c7.1,2.276,11.994,9.571,11.994,17.872v15.612A12.917,12.917,0,0,1,178.6,308.627Z" transform="translate(-74.283 -178.352)" fill="#736eff"/>
      <path id="Path_7141" data-name="Path 7141" d="M237.834,88.029v16.028A20.643,20.643,0,0,1,217.191,124.7h0a20.643,20.643,0,0,1-20.643-20.643V88.029l10.945-6.865Z" transform="translate(-145.685 -52.112)" fill="#cee1f5"/>
      <path id="Path_7142" data-name="Path 7142" d="M242.406,217.268a6.549,6.549,0,0,0-4.76-2.044H209.459a20.62,20.62,0,0,0,17.243,9.3h0A20.594,20.594,0,0,0,242.406,217.268Z" transform="translate(-155.315 -151.626)" fill="#bdd9f6"/>
      <g id="Group_2552" data-name="Group 2552" transform="translate(39.77 73.269)">
        <path id="Path_7144" data-name="Path 7144" d="M373.618,331.377V315.764a19.065,19.065,0,0,0-8.5-16.243h0a18.984,18.984,0,0,0-6.294,14.12V330.21H345.947v13.928h16.761A12.919,12.919,0,0,0,373.618,331.377Z" transform="translate(-296.177 -287.287)" fill="#6060d8"/>
        <path id="Path_7145" data-name="Path 7145" d="M183.318,251.622l-32.239,10.336a50.151,50.151,0,0,1,40.466,46.705l14.016-.021a7.586,7.586,0,0,0,.051-.86V258.769Z" transform="translate(-151.079 -251.622)" fill="#6060d8"/>
      </g>
      <path id="Path_7146" data-name="Path 7146" d="M350.708,432.918V419.68h-4.763v13.928h4.727C350.694,433.38,350.708,433.151,350.708,432.918Z" transform="translate(-256.76 -303.488)" fill="#5757c1"/>
      <path id="Path_7147" data-name="Path 7147" d="M360.566,481.009H316.635l7.486-6.8h42.411v.83A5.966,5.966,0,0,1,360.566,481.009Z" transform="translate(-234.581 -344.092)" fill="#6060d8"/>
      <path id="Path_7148" data-name="Path 7148" d="M80.87,301.884H6.97A6.97,6.97,0,0,1,0,294.914v-54.7a6.571,6.571,0,0,1,6.571-6.571H81.785a6.571,6.571,0,0,1,6.571,6.571V294.4A7.486,7.486,0,0,1,80.87,301.884Z" transform="translate(0 -164.968)" fill="#96c5f5"/>
      <path id="Path_7149" data-name="Path 7149" d="M81.785,233.647H6.571A6.57,6.57,0,0,0,0,240.217v7.434H24.219a50.133,50.133,0,0,1,50.132,50.132v4.1H80.87a7.486,7.486,0,0,0,7.486-7.486V240.217A6.57,6.57,0,0,0,81.785,233.647Z" transform="translate(0 -164.968)" fill="#55a2f0"/>
      <circle id="Ellipse_1579" data-name="Ellipse 1579" cx="6.525" cy="6.525" r="6.525" transform="translate(38.031 96.106)" fill="#fff"/>
      <path id="Path_7150" data-name="Path 7150" d="M199.65,58.8a22.446,22.446,0,0,0-3.279,14.355,23.033,23.033,0,0,0,5.39-2.068,25.717,25.717,0,0,0,5.5-4.082h0Z" transform="translate(-145.622 -35.463)" fill="#736eff"/>
      <path id="Path_7151" data-name="Path 7151" d="M252.73,34.56a1.252,1.252,0,0,0,.732-1.517c-1.651-5.617-4.283-10.915-8.4-14.9-1.423-1.376-6.77-6.549-14.685-6.958a23.99,23.99,0,0,0-15.39,5.642,25.565,25.565,0,0,0-5.382,6.516c6.637,9.5,16.6,15.536,27.729,15.536,2.742,0,8.471-.836,11.208-2.633Z" transform="translate(-155.338 0)" fill="#55a2f0"/>
      <g id="Group_2553" data-name="Group 2553" transform="translate(44.851 38.937)">
        <path id="Path_7152" data-name="Path 7152" d="M360.8,131.112h-3V119.218h3a2.885,2.885,0,0,1,2.885,2.885v6.124A2.885,2.885,0,0,1,360.8,131.112Z" transform="translate(-310.591 -119.218)" fill="#55a2f0"/>
        <path id="Path_7153" data-name="Path 7153" d="M175.858,119.218h3.154v11.894h-3.154a2.885,2.885,0,0,1-2.885-2.885V122.1A2.885,2.885,0,0,1,175.858,119.218Z" transform="translate(-172.973 -119.218)" fill="#55a2f0"/>
      </g>
    </g>
  </g>
</svg>
