<svg xmlns="http://www.w3.org/2000/svg" width="60.434" height="42.682" viewBox="0 0 60.434 42.682">
  <g id="Group_1" data-name="Group 1" transform="translate(-1745.472 -601)">
    <g id="Group_6" data-name="Group 6" transform="translate(1737.461 579.078)">
      <path id="Path_9" data-name="Path 9" d="M66.847,24.962H16.059a1.52,1.52,0,1,1,0-3.04H66.847a1.52,1.52,0,0,1,0,3.04Z"/>
      <path id="Path_10" data-name="Path 10" d="M66.949,50.989H16.161a1.52,1.52,0,0,1,0-3.04H66.949a1.52,1.52,0,0,1,0,3.04Z" transform="translate(-0.024 -6.245)"/>
      <path id="Path_11" data-name="Path 11" d="M66.949,77.118H16.161a1.52,1.52,0,1,1,0-3.04H66.949a1.52,1.52,0,0,1,0,3.04Z" transform="translate(-0.024 -12.514)"/>
      <path id="Path_10-2" data-name="Path 10" d="M56.118,50.989H15.846a1.561,1.561,0,0,1,0-3.04H56.118a1.561,1.561,0,0,1,0,3.04Z" transform="translate(59 7.281) rotate(90)"/>
    </g>
  </g>
</svg>
