<svg xmlns="http://www.w3.org/2000/svg" width="48" height="42.682" viewBox="0 0 48 42.682">
  <g id="Group_4" data-name="Group 4" transform="translate(-1.193 -0.942)">
    <g id="Group_4-2" data-name="Group 4">
      <path id="Path_4" data-name="Path 4" d="M47.744,1.017,1.866,19.029a1.061,1.061,0,0,0-.051,1.954l10.142,4.6a1.061,1.061,0,0,1,.574.648l4.351,13.848a1.061,1.061,0,0,0,1.65.529L26.108,34.9a1.061,1.061,0,0,1,1.232-.032l12.7,8.57a1.061,1.061,0,0,0,1.637-.687L49.175,2.2A1.061,1.061,0,0,0,47.744,1.017Zm-27.8,26.532-1.369,7.78L15.042,24.19,39.263,9.156Z"/>
    </g>
    <g id="Group_5" data-name="Group 5">
      <path id="Path_8" data-name="Path 8" d="M47.744,1.017,1.866,19.029a1.061,1.061,0,0,0-.051,1.954l10.142,4.6a1.061,1.061,0,0,1,.574.648l4.351,13.848a1.061,1.061,0,0,0,1.65.529L26.108,34.9a1.061,1.061,0,0,1,1.232-.032l12.7,8.57a1.061,1.061,0,0,0,1.637-.687L49.175,2.2A1.061,1.061,0,0,0,47.744,1.017Zm-27.8,26.532-1.369,7.78L15.042,24.19,39.263,9.156Z"/>
    </g>
  </g>
</svg>
